<?xml version="1.0" encoding="UTF-8" standalone="no"?>
<svg width="87px" height="87px" viewBox="0 0 87 87" version="1.1" xmlns="http://www.w3.org/2000/svg" xmlns:xlink="http://www.w3.org/1999/xlink">
    <!-- Generator: Sketch 47 (45396) - http://www.bohemiancoding.com/sketch -->
    <title>icons8-design</title>
    <desc>Created with Sketch.</desc>
    <defs></defs>
    <g id="Page-1" stroke="none" stroke-width="1" fill="none" fill-rule="evenodd">
        <g id="icons8-design" transform="translate(-1.000000, -1.000000)" fill-rule="nonzero" fill="#262626">
            <path d="M17.68875,0.945625 L16.409375,2.169375 L2.169375,16.409375 L0.945625,17.68875 L2.169375,18.968125 L29.981875,46.780625 L7.67625,69.08625 C7.44679732,69.2948446 7.27296964,69.5660152 7.175625,69.865 L3.615625,83.215 C3.45570268,83.826875 3.63648482,84.4735152 4.08148482,84.9185152 C4.52648482,85.3635152 5.173125,85.5442973 5.785,85.384375 L19.135,81.824375 C19.4339848,81.7270321 19.7051571,81.5532027 19.91375,81.32375 L81.435,19.8025 C81.4280473,19.8094527 82.88125,18.35625 82.88125,18.35625 C86.2674223,14.9700777 86.2604696,9.49796964 82.88125,6.11875 C79.4950777,2.73257768 74.0299223,2.73953214 70.64375,6.11875 L46.780625,29.981875 L18.968125,2.169375 L17.68875,0.945625 Z M17.68875,6.0075 L20.58125,8.9 L18.300625,11.180625 L20.859375,13.739375 L23.14,11.45875 L25.92125,14.24 L21.860625,18.300625 L24.419375,20.859375 L28.48,16.79875 L31.26125,19.58 L28.980625,21.860625 L31.539375,24.419375 L33.82,22.13875 L36.60125,24.92 L32.540625,28.980625 L35.099375,31.539375 L39.16,27.47875 L41.94125,30.26 L39.660625,32.540625 L41.94125,34.82125 L32.540625,44.221875 L6.0075,17.68875 L17.68875,6.0075 Z M71.700625,10.068125 L78.931875,17.299375 L17.744375,78.486875 L10.513125,71.255625 L71.700625,10.068125 Z M60.52,43.776875 L59.240625,45.000625 L55.680625,48.560625 L58.239375,51.119375 L60.52,48.83875 L63.30125,51.62 L59.240625,55.680625 L61.799375,58.239375 L65.86,54.17875 L68.64125,56.96 L66.360625,59.240625 L68.919375,61.799375 L71.2,59.51875 L73.98125,62.3 L69.920625,66.360625 L72.479375,68.919375 L76.54,64.85875 L79.32125,67.64 L77.040625,69.920625 L79.599375,72.479375 L81.88,70.19875 L82.9925,71.31125 L71.31125,82.9925 L46.28,58.016875 L43.776875,60.52 L70.031875,86.830625 L71.31125,88.054375 L72.590625,86.830625 L86.830625,72.590625 L88.054375,71.31125 L86.830625,70.031875 L60.52,43.776875 Z" id="Shape"></path>
        </g>
    </g>
</svg>