<?xml version="1.0" encoding="UTF-8" standalone="no"?>
<svg width="89px" height="79px" viewBox="0 0 89 79" version="1.1" xmlns="http://www.w3.org/2000/svg" xmlns:xlink="http://www.w3.org/1999/xlink">
    <!-- Generator: Sketch 47 (45396) - http://www.bohemiancoding.com/sketch -->
    <title>Group 2</title>
    <desc>Created with Sketch.</desc>
    <defs></defs>
    <g id="Page-1" stroke="none" stroke-width="1" fill="none" fill-rule="evenodd">
        <g id="Group-2" fill-rule="nonzero" fill="#262626">
            <g id="icons8-brain" transform="translate(26.969697, 20.227273)">
                <path d="M13.8598958,0.00460915488 C13.7069621,0.0091740401 13.5540289,0.0228698644 13.4010951,0.0456954592 C11.9516493,0.260259089 10.6893763,1.30568442 10.1803583,2.7026287 C10.0707939,3.00164797 10.0000334,3.30523212 9.96122948,3.61566418 C9.67818813,3.54490378 9.38601641,3.51066539 9.08927981,3.50838237 C9.07786641,3.50838237 9.06873604,3.50609992 9.05732323,3.50609992 C9.05047531,3.50609992 9.04591042,3.51066539 9.0390625,3.51066539 C8.79254261,3.51294784 8.54602273,3.53120854 8.2972204,3.5814252 C6.82723144,3.87131411 5.64028384,5.05369535 5.33898176,6.52368247 C5.220287,7.11030762 5.23398226,7.69693277 5.38006811,8.25616685 C3.64529854,8.60768581 2.33737374,10.1438679 2.33737374,11.9790692 C2.33737374,12.6296068 2.50400277,13.2641667 2.81671825,13.8234008 C2.6318279,13.905574 2.45378605,13.99916 2.28030909,14.1041594 C2.24150518,14.126985 2.20270069,14.1498112 2.16389678,14.1726368 C2.00639811,14.2753537 1.85118189,14.3826349 1.70737847,14.5013295 C1.64346591,14.5538292 1.58868371,14.6086113 1.52933662,14.6633935 C1.47683687,14.7113277 1.41977223,14.7569795 1.36955492,14.8094791 C1.36042456,14.8163271 1.35814211,14.8277399 1.35129419,14.8368702 C0.511300505,15.6837108 0,16.8432658 0,18.1146676 C0,19.4294387 0.566082702,20.6871452 1.53161907,21.5682241 C1.52933662,21.575072 1.52705359,21.5842024 1.52477115,21.5910503 C1.50422797,21.6389845 1.48824968,21.6869187 1.46998895,21.737136 C1.41977223,21.8695258 1.37640284,22.0041987 1.33988138,22.141154 C1.33075101,22.1731106 1.31477273,22.2050665 1.30564236,22.2393055 C1.30335992,22.2507183 1.30792481,22.2621311 1.30564236,22.2735445 C1.21890417,22.6319108 1.16868687,23.0016898 1.16868687,23.3737519 C1.16868687,25.3276479 2.36704728,27.0395897 4.14975171,27.7289312 C4.14746868,27.7334966 4.14975171,27.7380615 4.14975171,27.7449094 C4.11094722,27.9366469 4.09040404,28.1352322 4.09040404,28.3406649 C4.09040404,29.9795639 5.32300347,31.3354213 6.91168718,31.5294412 C7.82700625,33.6568139 9.93612083,35.0606061 12.2712121,35.0606061 C13.8051136,35.0606061 15.2545594,34.4694154 16.3524858,33.3988815 C17.0007418,32.7643221 18.0598643,32.7643221 18.7081203,33.3988815 C19.8083297,34.4694154 21.2554924,35.0606061 22.7893939,35.0606061 C25.1244852,35.0606061 27.2335998,33.6568139 28.1489189,31.5294412 C29.7376026,31.3354213 30.970202,29.9795639 30.970202,28.3406649 C30.970202,28.1352322 30.9496588,27.9343644 30.9131374,27.7380615 C30.9108549,27.7334966 30.9108549,27.7312136 30.9108549,27.7289312 C32.6935588,27.0395897 33.8919192,25.3276479 33.8919192,23.3737519 C33.8919192,23.1934273 33.8782239,23.0176681 33.8576802,22.8396265 C33.8508328,22.7711485 33.8394194,22.7049536 33.8280066,22.6364756 C33.8120283,22.5314769 33.7914852,22.4287605 33.7663765,22.3237611 C33.7481158,22.2438704 33.729855,22.1639802 33.7070294,22.0840895 C33.6819208,21.9973508 33.6522472,21.9128952 33.6225737,21.8284395 C33.5928996,21.7439839 33.5677915,21.6595277 33.5335525,21.575072 C33.53127,21.5727896 33.53127,21.5727896 33.528987,21.5682241 C34.4968058,20.6871452 35.0606061,19.4294387 35.0606061,18.1146676 C35.0606061,16.5282683 34.2731121,15.1199112 33.0313823,14.2707882 C33.0199695,14.2616579 33.0131216,14.2479626 32.9994258,14.2388323 C32.9788826,14.222854 32.9537739,14.2114412 32.9309483,14.1977454 C32.8556229,14.1498112 32.7757321,14.1064418 32.6981237,14.0607901 C32.5885593,13.99916 32.4789949,13.9420954 32.3648656,13.8873133 C32.3214962,13.8690526 32.2849747,13.843944 32.2416054,13.8256833 C32.5566033,13.2641667 32.7232323,12.6296068 32.7232323,11.9790692 C32.7232323,10.1438679 31.4153075,8.60768581 29.6805379,8.25616685 C29.8266238,7.69693277 29.8403191,7.11030762 29.7216243,6.52368247 C29.4203222,5.05369535 28.2333746,3.87359656 26.7633857,3.5814252 C26.5145833,3.53120854 26.2680634,3.51294784 26.0215436,3.51066539 C26.0146956,3.51066539 26.0101307,3.50609992 26.0032828,3.50609992 C25.99187,3.50609992 25.9827397,3.50838237 25.9713268,3.50838237 C25.8069802,3.51066539 25.6449161,3.51979575 25.4851344,3.54262134 C25.4417656,3.54946925 25.3983962,3.55859961 25.3550268,3.56544752 C25.2682886,3.5814252 25.1838323,3.59512103 25.0993766,3.61566418 C25.0605727,3.30751456 24.9875297,3.00164797 24.8802478,2.7026287 C24.3712297,1.30568442 23.1089568,0.260259089 21.659511,0.0456954592 C20.431477,-0.136911636 19.1988776,0.232868025 18.285841,1.06373031 C17.8612787,1.44720521 17.1993274,1.44720521 16.7747651,1.06373031 C15.9758583,0.337866812 14.9327141,-0.0364777338 13.8598958,0.00460915488 Z M13.9032652,1.17101154 C14.6724984,1.14133803 15.4166236,1.41068379 15.9872711,1.92654854 C16.8523735,2.7140415 18.2059501,2.7140415 19.0710525,1.92654854 C19.7215909,1.33535793 20.6026715,1.07057764 21.4883171,1.20068563 C22.5177654,1.35590166 23.4171068,2.10002529 23.7823214,3.10208187 C23.9010162,3.43305708 23.9580808,3.76174986 23.9557984,4.10413845 C23.3805853,4.47163509 22.9035238,4.99206531 22.5885259,5.63803806 C22.4470055,5.92792638 22.5679827,6.27944533 22.8555889,6.4186831 C22.9400453,6.45976999 23.0267835,6.48031314 23.1135222,6.48031314 C23.330368,6.48031314 23.538084,6.35933609 23.638518,6.15162037 C23.8964507,5.62434223 24.3096002,5.21804174 24.8072049,4.96695669 C24.9304651,4.9030442 25.0582902,4.84826208 25.1883978,4.80717577 C25.1975282,4.80489274 25.2043761,4.80032786 25.2135064,4.79804542 C25.6357857,4.66337254 26.0854561,4.64054636 26.5351265,4.72956746 C27.5485972,4.93043527 28.3680477,5.74531929 28.5757636,6.75878867 C28.6990233,7.36139208 28.619133,7.9639955 28.3406566,8.50268643 C28.2470705,8.68529353 28.2813095,8.90442204 28.3908739,9.07789878 C28.5004383,9.25365855 28.7195671,9.35409245 28.925,9.34952699 C30.3744458,9.34952699 31.5545455,10.5296252 31.5545455,11.9790692 C31.5545455,12.5291729 31.3719381,13.056451 31.0523753,13.501556 C30.2717293,13.3874262 29.465974,13.4627521 28.7241319,13.7435101 C28.4228299,13.8576398 28.2721791,14.1954629 28.3863084,14.4990471 C28.5004383,14.8003488 28.8405443,14.9509999 29.1418463,14.8368702 C29.7901023,14.5880682 30.5136837,14.5492643 31.1916133,14.7090452 C31.3650902,14.7478491 31.5294368,14.8026312 31.6892185,14.8665437 C31.7371528,14.8848044 31.7828046,14.9076306 31.8284564,14.9281738 C31.9539991,14.9829559 32.0726939,15.0445859 32.1868232,15.1130633 C32.2256277,15.1381719 32.2689965,15.1587151 32.307801,15.1838237 C33.2756198,15.8138182 33.8919192,16.898048 33.8919192,18.1146676 C33.8919192,19.0299855 33.5404004,19.8791085 32.9195355,20.5250812 C32.5862768,20.0913897 32.1754104,19.7124797 31.6937834,19.411178 C31.4221554,19.2377012 31.0615057,19.3221569 30.8903112,19.5937851 C30.7191172,19.8676957 30.8012905,20.228345 31.0752015,20.3995387 C31.5933494,20.7236666 32.0064989,21.1642061 32.2872572,21.6755059 C32.2918227,21.6800714 32.2895402,21.6846363 32.2941051,21.6892018 C32.5041035,22.0749591 32.641059,22.4972379 32.6958412,22.9332125 C32.714102,23.0770157 32.7232323,23.2253838 32.7232323,23.3737519 C32.7232323,24.8414566 31.8147612,26.1197063 30.4748798,26.6332886 C29.9339058,25.7773177 29.0026084,25.195258 27.9320725,25.1359104 C28.0005506,24.850587 28.0484848,24.5561332 28.0484848,24.250266 C28.0484848,23.6271194 27.8932686,23.0085377 27.6010969,22.4629989 C27.4504462,22.1776755 27.0966443,22.0703936 26.8113205,22.2233272 C26.5259961,22.3739784 26.4187148,22.7277792 26.571648,23.0131032 C26.7770815,23.3965781 26.879798,23.812009 26.879798,24.250266 C26.879798,25.4691687 26.0535001,26.5191595 24.8711174,26.8067653 C24.5584025,26.8820906 24.3643824,27.1970881 24.4419902,27.5098027 C24.5059028,27.7791484 24.7455747,27.95719 25.0080729,27.95719 C25.0537247,27.95719 25.0993766,27.9526252 25.1450284,27.9412118 C26.1105648,27.708388 26.8980587,27.1171974 27.4116417,26.3365524 C27.5257715,26.3160086 27.6399008,26.2954655 27.7563131,26.2954655 C28.6100027,26.2954655 29.3427144,26.8227436 29.6462989,27.5691503 C29.6987987,27.6924097 29.7353201,27.8156698 29.7627112,27.9434948 C29.7878199,28.0713198 29.8015152,28.2037096 29.8015152,28.3406649 C29.8015152,29.4614161 28.8953265,30.3744516 27.7768563,30.3858644 C27.4915325,30.3744516 27.2792516,30.5296676 27.1925129,30.7739048 C26.5328441,32.6387796 24.7638355,33.8919206 22.7893939,33.8919206 C21.56136,33.8919206 20.4040859,33.4217077 19.5252883,32.5657368 C18.9751833,32.0270458 18.251602,31.7599831 17.530303,31.7599831 C16.8090041,31.7599831 16.0854227,32.0270458 15.5353183,32.5657368 C14.6565201,33.4217077 13.4992467,33.8919206 12.2712121,33.8919206 C10.2967706,33.8919206 8.52776199,32.6387796 7.86809319,30.7739048 C7.78135442,30.5296676 7.57363902,30.3676037 7.28374975,30.3858644 C6.1652796,30.3744516 5.25909091,29.4614161 5.25909091,28.3406649 C5.25909091,28.2037096 5.27278675,28.0713198 5.29789482,27.9412118 C5.32528592,27.8133868 5.36409041,27.6901273 5.41430713,27.5668672 L5.41430713,27.5645848 C5.72017469,26.8204612 6.45060399,26.2954655 7.30429293,26.2954655 C7.42070524,26.2954655 7.53483453,26.3182916 7.6489644,26.3365524 C8.1602649,27.114915 8.94547639,27.7061056 9.90644729,27.9412118 C9.95209912,27.9526252 10.0000334,27.95719 10.0456852,27.95719 C10.3081834,27.95719 10.5478554,27.7768654 10.6117679,27.5098027 C10.6893763,27.1970881 10.4976386,26.8820906 10.1826407,26.8044829 C9.00482348,26.5168764 8.18080808,25.4668856 8.18080808,24.250266 C8.18080808,23.8394 8.27211174,23.4467948 8.45471907,23.0815806 C8.59852248,22.7916917 8.47982772,22.4401733 8.18993845,22.2963701 C7.90233221,22.1525668 7.55081282,22.2712614 7.4070094,22.5611504 C7.14679426,23.0884285 7.01212121,23.6567929 7.01212121,24.250266 C7.01212121,24.5561332 7.06005549,24.850587 7.12853353,25.1359104 C6.05799824,25.195258 5.12670089,25.7773177 4.58800929,26.6332886 C3.24584546,26.1197063 2.33737374,24.8414566 2.33737374,23.3737519 C2.33737374,23.0792981 2.37617765,22.7871268 2.44693813,22.5063682 C2.4834596,22.3602826 2.52911143,22.2187623 2.58389362,22.081807 C2.61128472,22.0156115 2.64552374,21.951699 2.67519729,21.8855041 C2.85323972,21.5088771 3.09291168,21.1596412 3.39649621,20.8629044 C3.62703781,20.639211 3.63160329,20.2694313 3.40562658,20.03889 C3.17964987,19.8060657 2.80987033,19.8015008 2.57932873,20.0274772 C2.41954703,20.1826932 2.27346117,20.3493221 2.13878813,20.5250812 C1.52020626,19.8768261 1.16868687,19.0277031 1.16868687,18.1146676 C1.16868687,17.1194589 1.58411882,16.2178362 2.26204836,15.5764289 C2.30313472,15.5376251 2.34422166,15.4988212 2.38530801,15.4645822 C2.5062858,15.3595829 2.6318279,15.261432 2.76650095,15.1746933 C2.78476168,15.1609981 2.80530486,15.1518677 2.82128314,15.1404544 C3.14312841,14.9418696 3.49921269,14.788936 3.88497109,14.6999149 C3.88725354,14.6999149 3.88725354,14.6999149 3.88953598,14.6999149 C4.14518624,14.6405679 4.40768441,14.6086113 4.67474747,14.6086113 C5.03083176,14.6086113 5.38235114,14.661111 5.71789166,14.7661098 C6.02604167,14.8596964 6.3524524,14.6907845 6.44832096,14.3803525 C6.54419009,14.0744859 6.37299558,13.7457931 6.06256313,13.6499241 C5.61517519,13.5106863 5.14724407,13.4399259 4.67474747,13.4399259 C4.44648832,13.4399259 4.22507709,13.4627521 4.00366585,13.4947081 C3.68638548,13.0496031 3.50606061,12.5268905 3.50606061,11.9790692 C3.50606061,10.5296252 4.68616029,9.34952699 6.11962777,9.34952699 C6.12647569,9.34952699 6.17440997,9.35180943 6.18125789,9.35180943 C6.38669142,9.35865734 6.582994,9.25365855 6.6925584,9.07789878 C6.80212279,8.90442204 6.81125316,8.68529353 6.71766705,8.50040399 C6.44147362,7.9639955 6.36158277,7.36139208 6.48255997,6.75878867 C6.69027595,5.74531929 7.50972646,4.93043527 8.5231971,4.72956746 C8.82221616,4.66793742 9.1212358,4.6610901 9.41340751,4.69989396 C9.42710335,4.7021764 9.44079861,4.70674187 9.45221142,4.70902431 C9.57318921,4.72728502 9.69188397,4.75467609 9.8082957,4.78891506 C9.8471002,4.80032786 9.88590411,4.8140231 9.92242557,4.82771892 C10.0182941,4.8619579 10.1118808,4.90076176 10.2031845,4.94413109 C10.6711156,5.17238996 11.0728517,5.53075624 11.3399148,5.99868678 C11.4471967,6.18585934 11.6434993,6.29085813 11.8466504,6.29085813 C11.9448014,6.29085813 12.0452354,6.26574951 12.1365391,6.21325041 C12.417298,6.05346891 12.5131671,5.69510263 12.3533854,5.41434407 C12.042953,4.87793558 11.6092609,4.43967855 11.1025253,4.11555125 C11.1002428,3.77088021 11.1573074,3.43533953 11.2782847,3.10208187 C11.6412169,2.10002529 12.5428407,1.35590166 13.5700066,1.20068563 C13.681854,1.18470736 13.7914184,1.17557701 13.9032652,1.17101154 Z M16.9459596,3.50609992 C16.6241143,3.50609992 16.3616162,3.76631533 16.3616162,4.09044263 C16.3616162,4.41457052 16.6241143,4.67478534 16.9459596,4.67478534 L18.1146465,4.67478534 C18.4364917,4.67478534 18.6989899,4.41457052 18.6989899,4.09044263 C18.6989899,3.76631533 18.4364917,3.50609992 18.1146465,3.50609992 L16.9459596,3.50609992 Z M16.9459596,6.42781345 C16.6241143,6.42781345 16.3616162,6.68802886 16.3616162,7.01215616 C16.3616162,7.33628405 16.6241143,7.59649887 16.9459596,7.59649887 L18.1146465,7.59649887 C18.4364917,7.59649887 18.6989899,7.33628405 18.6989899,7.01215616 C18.6989899,6.68802886 18.4364917,6.42781345 18.1146465,6.42781345 L16.9459596,6.42781345 Z M21.7576626,8.15573295 C21.6823372,8.17171122 21.6092943,8.19910228 21.5408162,8.24475406 C20.4931071,8.95463929 19.8676768,10.1324551 19.8676768,11.3947265 C19.8676768,12.275806 20.1758268,13.1340593 20.7350616,13.811988 C20.8514739,13.9512258 21.0181029,14.0242686 21.187015,14.0242686 C21.3171225,14.0242686 21.4495126,13.9808993 21.559077,13.8895958 C21.8078799,13.6841631 21.8421183,13.3166664 21.6366854,13.0678638 C21.2486445,12.5999333 21.0363636,12.0041778 21.0363636,11.3947265 C21.0363636,10.5204948 21.4700563,9.70561082 22.1959201,9.21485411 C22.4629832,9.03453004 22.5337437,8.66931585 22.3534188,8.40225253 C22.2164633,8.20366775 21.9790738,8.1123642 21.7576626,8.15573295 Z M13.2139223,8.23105882 C13.0678364,8.25388441 12.9285985,8.33149272 12.8327299,8.46160013 C12.6409922,8.72181495 12.6957744,9.08702914 12.9559896,9.27876659 C13.6247888,9.77408878 14.0242424,10.5638642 14.0242424,11.3947265 C14.0242424,12.0041778 13.8119616,12.5999333 13.4239207,13.0678638 C13.2184878,13.3166664 13.2527268,13.6841631 13.5015291,13.8895958 C13.6110935,13.9808993 13.7434835,14.0242686 13.8735917,14.0242686 C14.0425032,14.0242686 14.2091322,13.9512258 14.3255445,13.811988 C14.8847793,13.1340593 15.1929293,12.275806 15.1929293,11.3947265 C15.1929293,10.1940851 14.6154338,9.05050772 13.6498974,8.33834005 C13.5197898,8.24247161 13.3622912,8.20823264 13.2139223,8.23105882 Z M16.9459596,9.34952699 C16.6241143,9.34952699 16.3616162,9.60974239 16.3616162,9.93386969 C16.3616162,10.2579976 16.6241143,10.5182124 16.9459596,10.5182124 L18.1146465,10.5182124 C18.4364917,10.5182124 18.6989899,10.2579976 18.6989899,9.93386969 C18.6989899,9.60974239 18.4364917,9.34952699 18.1146465,9.34952699 L16.9459596,9.34952699 Z M16.9459596,12.2712405 C16.6241143,12.2712405 16.3616162,12.5314559 16.3616162,12.8555832 C16.3616162,13.1797111 16.6241143,13.4399259 16.9459596,13.4399259 L18.1146465,13.4399259 C18.4364917,13.4399259 18.6989899,13.1797111 18.6989899,12.8555832 C18.6989899,12.5314559 18.4364917,12.2712405 18.1146465,12.2712405 L16.9459596,12.2712405 Z M9.01623688,12.3146098 C8.69439103,12.3146098 8.43189344,12.5748247 8.43189344,12.8989526 C8.43189344,14.3620918 9.24906092,15.6677325 10.5638336,16.3114228 C10.6460069,16.3525091 10.7327457,16.3707698 10.8194839,16.3707698 C11.0363302,16.3707698 11.2440462,16.2520752 11.3444802,16.042077 C11.4860006,15.7544712 11.3650234,15.4029522 11.0751342,15.261432 C10.16438,14.8163271 9.60058031,13.9101395 9.60058031,12.8989526 C9.60058031,12.5748247 9.33808214,12.3146098 9.01623688,12.3146098 Z M26.0010004,12.4561301 C25.6791551,12.4561301 25.4166569,12.7186279 25.4166569,13.0404728 C25.4166569,13.9808993 24.9099213,14.8551309 24.0950363,15.3230615 C23.8142774,15.4851254 23.7184088,15.8412092 23.87819,16.1219678 C23.9854719,16.3091398 24.1817751,16.4164216 24.3849256,16.4164216 C24.4830772,16.4164216 24.5835112,16.3890305 24.6770973,16.3365308 C25.8549145,15.6608846 26.5853438,14.3986132 26.5853438,13.0404728 C26.5853438,12.7186279 26.3228456,12.4561301 26.0010004,12.4561301 Z M16.9459596,15.192954 C16.6241143,15.192954 16.3616162,15.4531695 16.3616162,15.7772968 C16.3616162,16.1014246 16.6241143,16.3616395 16.9459596,16.3616395 L18.1146465,16.3616395 C18.4364917,16.3616395 18.6989899,16.1014246 18.6989899,15.7772968 C18.6989899,15.4531695 18.4364917,15.192954 18.1146465,15.192954 L16.9459596,15.192954 Z M16.9459596,18.1146676 C16.6241143,18.1146676 16.3616162,18.374883 16.3616162,18.6990103 C16.3616162,19.0231382 16.6241143,19.283353 16.9459596,19.283353 L18.1146465,19.283353 C18.4364917,19.283353 18.6989899,19.0231382 18.6989899,18.6990103 C18.6989899,18.374883 18.4364917,18.1146676 18.1146465,18.1146676 L16.9459596,18.1146676 Z M9.87677374,19.2650923 C9.72840544,19.2673747 9.58003655,19.2810705 9.43166824,19.3038961 C9.11210543,19.3518309 8.89297664,19.6508496 8.94091092,19.9681296 C8.98884578,20.2899745 9.28786483,20.5022556 9.6051452,20.4611688 C10.4268782,20.3333438 11.2714373,20.6118199 11.8603456,21.2007275 C12.0634961,21.4038777 12.2301258,21.6367021 12.3556679,21.8946345 C12.4583849,22.1000677 12.6661003,22.2187623 12.8806642,22.2187623 C12.9674024,22.2164793 13.0564236,22.1982186 13.1385969,22.1571323 C13.4284862,22.0133291 13.5471809,21.6618107 13.4033775,21.3742042 C13.2207702,21.0021421 12.9788158,20.6688845 12.684361,20.3744307 C11.9425189,19.6325889 10.9176355,19.2331363 9.87677374,19.2650923 Z M25.37557,19.2650923 C24.3369913,19.2331363 23.3121073,19.6325889 22.5702652,20.3744307 C22.275811,20.6688845 22.033856,21.0021421 21.8489662,21.3742042 C21.7074458,21.6618107 21.8261406,22.0133291 22.1137468,22.1571323 C22.1982026,22.1982186 22.2849414,22.2164793 22.3716795,22.2164793 C22.5885259,22.2164793 22.7962419,22.1000677 22.8989583,21.8946345 C23.024501,21.6367021 23.1911301,21.4038777 23.3942806,21.2007275 C23.9923198,20.604972 24.8117703,20.3333438 25.6471985,20.4611688 C25.9690438,20.5022556 26.2634986,20.287692 26.3137153,19.9681296 C26.3616496,19.6485672 26.1402383,19.3518309 25.8206755,19.3038961 C25.6723072,19.2810705 25.5262213,19.2673747 25.37557,19.2650923 Z M16.9459596,21.0363811 C16.6241143,21.0363811 16.3616162,21.2965965 16.3616162,21.6207238 C16.3616162,21.9448517 16.6241143,22.2050665 16.9459596,22.2050665 L18.1146465,22.2050665 C18.4364917,22.2050665 18.6989899,21.9448517 18.6989899,21.6207238 C18.6989899,21.2965965 18.4364917,21.0363811 18.1146465,21.0363811 L16.9459596,21.0363811 Z M16.9459596,23.9580946 C16.6241143,23.9580946 16.3616162,24.21831 16.3616162,24.5424373 C16.3616162,24.8665652 16.6241143,25.1267801 16.9459596,25.1267801 L18.1146465,25.1267801 C18.4364917,25.1267801 18.6989899,24.8665652 18.6989899,24.5424373 C18.6989899,24.21831 18.4364917,23.9580946 18.1146465,23.9580946 L16.9459596,23.9580946 Z M21.7576626,25.6860141 C21.6823372,25.7019924 21.6092943,25.7293835 21.5408162,25.7750352 C20.4931071,26.4849205 19.8676768,27.6627362 19.8676768,28.9250076 C19.8676768,29.5253286 20.0114802,30.1233666 20.2831087,30.6529271 C20.3858252,30.856078 20.5912581,30.9702071 20.8035396,30.9702071 C20.8925602,30.9702071 20.9838639,30.9519464 21.0706027,30.9062946 C21.3559265,30.760209 21.4700563,30.4086906 21.3216874,30.1210841 C21.1322328,29.749022 21.0363636,29.3472864 21.0363636,28.9250076 C21.0363636,28.050776 21.4700563,27.235892 22.1959201,26.7451353 C22.4629832,26.5648112 22.5337437,26.199597 22.3534188,25.9325337 C22.2187463,25.7339489 21.9790738,25.6426454 21.7576626,25.6860141 Z M13.2139223,25.76134 C13.0678364,25.7841656 12.9285985,25.8617739 12.8327299,25.9918813 C12.6409922,26.2520961 12.6957744,26.6173103 12.9559896,26.8090478 C13.6247888,27.30437 14.0242424,28.0941454 14.0242424,28.9250076 C14.0242424,29.3472864 13.9260908,29.749022 13.7366362,30.1210841 C13.5905503,30.4086906 13.7023972,30.760209 13.9900034,30.9085771 C14.0744597,30.9519464 14.1657634,30.9724896 14.254784,30.9724896 C14.4670655,30.9724896 14.6724984,30.8583604 14.7752149,30.6552102 C15.0491259,30.1256496 15.1929293,29.5253286 15.1929293,28.9250076 C15.1929293,27.7243663 14.6154338,26.5807889 13.6498974,25.8686212 C13.5197898,25.7727528 13.3622912,25.7385138 13.2139223,25.76134 Z M16.9459596,26.8798082 C16.6241143,26.8798082 16.3616162,27.1400236 16.3616162,27.4641509 C16.3616162,27.7882788 16.6241143,28.0484936 16.9459596,28.0484936 L18.1146465,28.0484936 C18.4364917,28.0484936 18.6989899,27.7882788 18.6989899,27.4641509 C18.6989899,27.1400236 18.4364917,26.8798082 18.1146465,26.8798082 L16.9459596,26.8798082 Z M16.9459596,29.8015217 C16.6241143,29.8015217 16.3616162,30.0617371 16.3616162,30.3858644 C16.3616162,30.7099923 16.6241143,30.9702071 16.9459596,30.9702071 L18.1146465,30.9702071 C18.4364917,30.9702071 18.6989899,30.7099923 18.6989899,30.3858644 C18.6989899,30.0617371 18.4364917,29.8015217 18.1146465,29.8015217 L16.9459596,29.8015217 Z" id="Shape"></path>
            </g>
            <g id="icons8-smartphone_ram">
                <path d="M14.8333333,0 L14.8333333,2.6969697 C12.6157082,2.6969697 10.7878788,4.52479911 10.7878788,6.74242424 L10.7878788,8.09090909 L5.39393939,8.09090909 C2.42832589,8.09090909 0,10.519235 0,13.4848485 L0,64.7272727 C0,67.6928862 2.42832589,70.1212121 5.39393939,70.1212121 L10.7878788,70.1212121 L10.7878788,71.469697 C10.7878788,73.6873221 12.6157082,75.5151515 14.8333333,75.5151515 L14.8333333,78.2121212 L17.530303,78.2121212 L17.530303,75.5151515 C19.7479282,75.5151515 21.5757576,73.6873221 21.5757576,71.469697 L21.5757576,70.1212121 L29.6666667,70.1212121 L29.6666667,71.469697 C29.6666667,73.6873221 31.4944961,75.5151515 33.7121212,75.5151515 L33.7121212,78.2121212 L36.4090909,78.2121212 L36.4090909,75.5151515 C38.626716,75.5151515 40.4545455,73.6873221 40.4545455,71.469697 L40.4545455,70.1212121 L48.5454545,70.1212121 L48.5454545,71.469697 C48.5454545,73.6873221 50.373284,75.5151515 52.5909091,75.5151515 L52.5909091,78.2121212 L55.2878788,78.2121212 L55.2878788,75.5151515 C57.5055039,75.5151515 59.3333333,73.6873221 59.3333333,71.469697 L59.3333333,70.1212121 L67.4242424,70.1212121 L67.4242424,71.469697 C67.4242424,73.6873221 69.2520718,75.5151515 71.469697,75.5151515 L71.469697,78.2121212 L74.1666667,78.2121212 L74.1666667,75.5151515 C76.3842918,75.5151515 78.2121212,73.6873221 78.2121212,71.469697 L78.2121212,70.1212121 L83.6060606,70.1212121 C86.5716741,70.1212121 89,67.6928862 89,64.7272727 L89,13.4848485 C89,10.519235 86.5716741,8.09090909 83.6060606,8.09090909 L78.2121212,8.09090909 L78.2121212,6.74242424 C78.2121212,4.52479911 76.3842918,2.6969697 74.1666667,2.6969697 L74.1666667,0 L71.469697,0 L71.469697,2.6969697 C69.2520718,2.6969697 67.4242424,4.52479911 67.4242424,6.74242424 L67.4242424,8.09090909 L59.3333333,8.09090909 L59.3333333,6.74242424 C59.3333333,4.52479911 57.5055039,2.6969697 55.2878788,2.6969697 L55.2878788,0 L52.5909091,0 L52.5909091,2.6969697 C50.373284,2.6969697 48.5454545,4.52479911 48.5454545,6.74242424 L48.5454545,8.09090909 L40.4545455,8.09090909 L40.4545455,6.74242424 C40.4545455,4.52479911 38.626716,2.6969697 36.4090909,2.6969697 L36.4090909,0 L33.7121212,0 L33.7121212,2.6969697 C31.4944961,2.6969697 29.6666667,4.52479911 29.6666667,6.74242424 L29.6666667,8.09090909 L21.5757576,8.09090909 L21.5757576,6.74242424 C21.5757576,4.52479911 19.7479282,2.6969697 17.530303,2.6969697 L17.530303,0 L14.8333333,0 Z M14.8333333,5.39393939 L17.530303,5.39393939 C18.2940929,5.39393939 18.8787879,5.97863433 18.8787879,6.74242424 L18.8787879,8.09090909 L13.4848485,8.09090909 L13.4848485,6.74242424 C13.4848485,5.97863433 14.0695434,5.39393939 14.8333333,5.39393939 Z M33.7121212,5.39393939 L36.4090909,5.39393939 C37.1728808,5.39393939 37.7575758,5.97863433 37.7575758,6.74242424 L37.7575758,8.09090909 L32.3636364,8.09090909 L32.3636364,6.74242424 C32.3636364,5.97863433 32.9483313,5.39393939 33.7121212,5.39393939 Z M52.5909091,5.39393939 L55.2878788,5.39393939 C56.0516687,5.39393939 56.6363636,5.97863433 56.6363636,6.74242424 L56.6363636,8.09090909 L51.2424242,8.09090909 L51.2424242,6.74242424 C51.2424242,5.97863433 51.8271192,5.39393939 52.5909091,5.39393939 Z M71.469697,5.39393939 L74.1666667,5.39393939 C74.9304566,5.39393939 75.5151515,5.97863433 75.5151515,6.74242424 L75.5151515,8.09090909 L70.1212121,8.09090909 L70.1212121,6.74242424 C70.1212121,5.97863433 70.7059071,5.39393939 71.469697,5.39393939 Z M5.39393939,10.7878788 L83.6060606,10.7878788 C85.1125717,10.7878788 86.3030303,11.9783387 86.3030303,13.4848485 L86.3030303,64.7272727 C86.3030303,66.2337838 85.1125717,67.4242424 83.6060606,67.4242424 L5.39393939,67.4242424 C3.88742965,67.4242424 2.6969697,66.2337838 2.6969697,64.7272727 L2.6969697,13.4848485 C2.6969697,11.9783387 3.88742965,10.7878788 5.39393939,10.7878788 Z M9.43939394,16.1818182 C8.69667411,16.1818182 8.09090909,16.7875832 8.09090909,17.530303 C8.09090909,18.2730229 8.69667411,18.8787879 9.43939394,18.8787879 C10.1821138,18.8787879 10.7878788,18.2730229 10.7878788,17.530303 C10.7878788,16.7875832 10.1821138,16.1818182 9.43939394,16.1818182 Z M14.8333333,16.1818182 C14.0906135,16.1818182 13.4848485,16.7875832 13.4848485,17.530303 C13.4848485,18.2730229 14.0906135,18.8787879 14.8333333,18.8787879 C15.5760532,18.8787879 16.1818182,18.2730229 16.1818182,17.530303 C16.1818182,16.7875832 15.5760532,16.1818182 14.8333333,16.1818182 Z M20.2272727,16.1818182 C19.4845529,16.1818182 18.8787879,16.7875832 18.8787879,17.530303 C18.8787879,18.2730229 19.4845529,18.8787879 20.2272727,18.8787879 C20.9699926,18.8787879 21.5757576,18.2730229 21.5757576,17.530303 C21.5757576,16.7875832 20.9699926,16.1818182 20.2272727,16.1818182 Z M25.6212121,16.1818182 C24.8784923,16.1818182 24.2727273,16.7875832 24.2727273,17.530303 C24.2727273,18.2730229 24.8784923,18.8787879 25.6212121,18.8787879 C26.363932,18.8787879 26.969697,18.2730229 26.969697,17.530303 C26.969697,16.7875832 26.363932,16.1818182 25.6212121,16.1818182 Z M31.0151515,16.1818182 C30.2724317,16.1818182 29.6666667,16.7875832 29.6666667,17.530303 C29.6666667,18.2730229 30.2724317,18.8787879 31.0151515,18.8787879 C31.7578713,18.8787879 32.3636364,18.2730229 32.3636364,17.530303 C32.3636364,16.7875832 31.7578713,16.1818182 31.0151515,16.1818182 Z M36.4090909,16.1818182 C35.6663711,16.1818182 35.0606061,16.7875832 35.0606061,17.530303 C35.0606061,18.2730229 35.6663711,18.8787879 36.4090909,18.8787879 C37.1518107,18.8787879 37.7575758,18.2730229 37.7575758,17.530303 C37.7575758,16.7875832 37.1518107,16.1818182 36.4090909,16.1818182 Z M41.8030303,16.1818182 C41.0603105,16.1818182 40.4545455,16.7875832 40.4545455,17.530303 C40.4545455,18.2730229 41.0603105,18.8787879 41.8030303,18.8787879 C42.5457501,18.8787879 43.1515152,18.2730229 43.1515152,17.530303 C43.1515152,16.7875832 42.5457501,16.1818182 41.8030303,16.1818182 Z M47.1969697,16.1818182 C46.4542499,16.1818182 45.8484848,16.7875832 45.8484848,17.530303 C45.8484848,18.2730229 46.4542499,18.8787879 47.1969697,18.8787879 C47.9396895,18.8787879 48.5454545,18.2730229 48.5454545,17.530303 C48.5454545,16.7875832 47.9396895,16.1818182 47.1969697,16.1818182 Z M52.5909091,16.1818182 C51.8481893,16.1818182 51.2424242,16.7875832 51.2424242,17.530303 C51.2424242,18.2730229 51.8481893,18.8787879 52.5909091,18.8787879 C53.3336289,18.8787879 53.9393939,18.2730229 53.9393939,17.530303 C53.9393939,16.7875832 53.3336289,16.1818182 52.5909091,16.1818182 Z M57.9848485,16.1818182 C57.2421287,16.1818182 56.6363636,16.7875832 56.6363636,17.530303 C56.6363636,18.2730229 57.2421287,18.8787879 57.9848485,18.8787879 C58.7275683,18.8787879 59.3333333,18.2730229 59.3333333,17.530303 C59.3333333,16.7875832 58.7275683,16.1818182 57.9848485,16.1818182 Z M63.3787879,16.1818182 C62.636068,16.1818182 62.030303,16.7875832 62.030303,17.530303 C62.030303,18.2730229 62.636068,18.8787879 63.3787879,18.8787879 C64.1215077,18.8787879 64.7272727,18.2730229 64.7272727,17.530303 C64.7272727,16.7875832 64.1215077,16.1818182 63.3787879,16.1818182 Z M68.7727273,16.1818182 C68.0300074,16.1818182 67.4242424,16.7875832 67.4242424,17.530303 C67.4242424,18.2730229 68.0300074,18.8787879 68.7727273,18.8787879 C69.5154471,18.8787879 70.1212121,18.2730229 70.1212121,17.530303 C70.1212121,16.7875832 69.5154471,16.1818182 68.7727273,16.1818182 Z M74.1666667,16.1818182 C73.4239468,16.1818182 72.8181818,16.7875832 72.8181818,17.530303 C72.8181818,18.2730229 73.4239468,18.8787879 74.1666667,18.8787879 C74.9093865,18.8787879 75.5151515,18.2730229 75.5151515,17.530303 C75.5151515,16.7875832 74.9093865,16.1818182 74.1666667,16.1818182 Z M79.5606061,16.1818182 C78.8178862,16.1818182 78.2121212,16.7875832 78.2121212,17.530303 C78.2121212,18.2730229 78.8178862,18.8787879 79.5606061,18.8787879 C80.3033259,18.8787879 80.9090909,18.2730229 80.9090909,17.530303 C80.9090909,16.7875832 80.3033259,16.1818182 79.5606061,16.1818182 Z M9.43939394,21.5757576 C8.69667411,21.5757576 8.09090909,22.1815226 8.09090909,22.9242424 C8.09090909,23.6669623 8.69667411,24.2727273 9.43939394,24.2727273 C10.1821138,24.2727273 10.7878788,23.6669623 10.7878788,22.9242424 C10.7878788,22.1815226 10.1821138,21.5757576 9.43939394,21.5757576 Z M79.5606061,21.5757576 C78.8178862,21.5757576 78.2121212,22.1815226 78.2121212,22.9242424 C78.2121212,23.6669623 78.8178862,24.2727273 79.5606061,24.2727273 C80.3033259,24.2727273 80.9090909,23.6669623 80.9090909,22.9242424 C80.9090909,22.1815226 80.3033259,21.5757576 79.5606061,21.5757576 Z M9.43939394,26.969697 C8.69667411,26.969697 8.09090909,27.575462 8.09090909,28.3181818 C8.09090909,29.0609017 8.69667411,29.6666667 9.43939394,29.6666667 C10.1821138,29.6666667 10.7878788,29.0609017 10.7878788,28.3181818 C10.7878788,27.575462 10.1821138,26.969697 9.43939394,26.969697 Z M79.5606061,26.969697 C78.8178862,26.969697 78.2121212,27.575462 78.2121212,28.3181818 C78.2121212,29.0609017 78.8178862,29.6666667 79.5606061,29.6666667 C80.3033259,29.6666667 80.9090909,29.0609017 80.9090909,28.3181818 C80.9090909,27.575462 80.3033259,26.969697 79.5606061,26.969697 Z M9.43939394,32.3636364 C8.69667411,32.3636364 8.09090909,32.9694014 8.09090909,33.7121212 C8.09090909,34.454841 8.69667411,35.0606061 9.43939394,35.0606061 C10.1821138,35.0606061 10.7878788,34.454841 10.7878788,33.7121212 C10.7878788,32.9694014 10.1821138,32.3636364 9.43939394,32.3636364 Z M79.5606061,32.3636364 C78.8178862,32.3636364 78.2121212,32.9694014 78.2121212,33.7121212 C78.2121212,34.454841 78.8178862,35.0606061 79.5606061,35.0606061 C80.3033259,35.0606061 80.9090909,34.454841 80.9090909,33.7121212 C80.9090909,32.9694014 80.3033259,32.3636364 79.5606061,32.3636364 Z M9.43939394,37.7575758 C8.69667411,37.7575758 8.09090909,38.3633408 8.09090909,39.1060606 C8.09090909,39.8487804 8.69667411,40.4545455 9.43939394,40.4545455 C10.1821138,40.4545455 10.7878788,39.8487804 10.7878788,39.1060606 C10.7878788,38.3633408 10.1821138,37.7575758 9.43939394,37.7575758 Z M79.5606061,37.7575758 C78.8178862,37.7575758 78.2121212,38.3633408 78.2121212,39.1060606 C78.2121212,39.8487804 78.8178862,40.4545455 79.5606061,40.4545455 C80.3033259,40.4545455 80.9090909,39.8487804 80.9090909,39.1060606 C80.9090909,38.3633408 80.3033259,37.7575758 79.5606061,37.7575758 Z M9.43939394,43.1515152 C8.69667411,43.1515152 8.09090909,43.7572802 8.09090909,44.5 C8.09090909,45.2427198 8.69667411,45.8484848 9.43939394,45.8484848 C10.1821138,45.8484848 10.7878788,45.2427198 10.7878788,44.5 C10.7878788,43.7572802 10.1821138,43.1515152 9.43939394,43.1515152 Z M79.5606061,43.1515152 C78.8178862,43.1515152 78.2121212,43.7572802 78.2121212,44.5 C78.2121212,45.2427198 78.8178862,45.8484848 79.5606061,45.8484848 C80.3033259,45.8484848 80.9090909,45.2427198 80.9090909,44.5 C80.9090909,43.7572802 80.3033259,43.1515152 79.5606061,43.1515152 Z M9.43939394,48.5454545 C8.69667411,48.5454545 8.09090909,49.1512196 8.09090909,49.8939394 C8.09090909,50.6366592 8.69667411,51.2424242 9.43939394,51.2424242 C10.1821138,51.2424242 10.7878788,50.6366592 10.7878788,49.8939394 C10.7878788,49.1512196 10.1821138,48.5454545 9.43939394,48.5454545 Z M79.5606061,48.5454545 C78.8178862,48.5454545 78.2121212,49.1512196 78.2121212,49.8939394 C78.2121212,50.6366592 78.8178862,51.2424242 79.5606061,51.2424242 C80.3033259,51.2424242 80.9090909,50.6366592 80.9090909,49.8939394 C80.9090909,49.1512196 80.3033259,48.5454545 79.5606061,48.5454545 Z M9.43939394,53.9393939 C8.69667411,53.9393939 8.09090909,54.545159 8.09090909,55.2878788 C8.09090909,56.0305986 8.69667411,56.6363636 9.43939394,56.6363636 C10.1821138,56.6363636 10.7878788,56.0305986 10.7878788,55.2878788 C10.7878788,54.545159 10.1821138,53.9393939 9.43939394,53.9393939 Z M79.5606061,53.9393939 C78.8178862,53.9393939 78.2121212,54.545159 78.2121212,55.2878788 C78.2121212,56.0305986 78.8178862,56.6363636 79.5606061,56.6363636 C80.3033259,56.6363636 80.9090909,56.0305986 80.9090909,55.2878788 C80.9090909,54.545159 80.3033259,53.9393939 79.5606061,53.9393939 Z M9.43939394,59.3333333 C8.69667411,59.3333333 8.09090909,59.9390983 8.09090909,60.6818182 C8.09090909,61.424538 8.69667411,62.030303 9.43939394,62.030303 C10.1821138,62.030303 10.7878788,61.424538 10.7878788,60.6818182 C10.7878788,59.9390983 10.1821138,59.3333333 9.43939394,59.3333333 Z M14.8333333,59.3333333 C14.0906135,59.3333333 13.4848485,59.9390983 13.4848485,60.6818182 C13.4848485,61.424538 14.0906135,62.030303 14.8333333,62.030303 C15.5760532,62.030303 16.1818182,61.424538 16.1818182,60.6818182 C16.1818182,59.9390983 15.5760532,59.3333333 14.8333333,59.3333333 Z M20.2272727,59.3333333 C19.4845529,59.3333333 18.8787879,59.9390983 18.8787879,60.6818182 C18.8787879,61.424538 19.4845529,62.030303 20.2272727,62.030303 C20.9699926,62.030303 21.5757576,61.424538 21.5757576,60.6818182 C21.5757576,59.9390983 20.9699926,59.3333333 20.2272727,59.3333333 Z M25.6212121,59.3333333 C24.8784923,59.3333333 24.2727273,59.9390983 24.2727273,60.6818182 C24.2727273,61.424538 24.8784923,62.030303 25.6212121,62.030303 C26.363932,62.030303 26.969697,61.424538 26.969697,60.6818182 C26.969697,59.9390983 26.363932,59.3333333 25.6212121,59.3333333 Z M31.0151515,59.3333333 C30.2724317,59.3333333 29.6666667,59.9390983 29.6666667,60.6818182 C29.6666667,61.424538 30.2724317,62.030303 31.0151515,62.030303 C31.7578713,62.030303 32.3636364,61.424538 32.3636364,60.6818182 C32.3636364,59.9390983 31.7578713,59.3333333 31.0151515,59.3333333 Z M36.4090909,59.3333333 C35.6663711,59.3333333 35.0606061,59.9390983 35.0606061,60.6818182 C35.0606061,61.424538 35.6663711,62.030303 36.4090909,62.030303 C37.1518107,62.030303 37.7575758,61.424538 37.7575758,60.6818182 C37.7575758,59.9390983 37.1518107,59.3333333 36.4090909,59.3333333 Z M41.8030303,59.3333333 C41.0603105,59.3333333 40.4545455,59.9390983 40.4545455,60.6818182 C40.4545455,61.424538 41.0603105,62.030303 41.8030303,62.030303 C42.5457501,62.030303 43.1515152,61.424538 43.1515152,60.6818182 C43.1515152,59.9390983 42.5457501,59.3333333 41.8030303,59.3333333 Z M47.1969697,59.3333333 C46.4542499,59.3333333 45.8484848,59.9390983 45.8484848,60.6818182 C45.8484848,61.424538 46.4542499,62.030303 47.1969697,62.030303 C47.9396895,62.030303 48.5454545,61.424538 48.5454545,60.6818182 C48.5454545,59.9390983 47.9396895,59.3333333 47.1969697,59.3333333 Z M52.5909091,59.3333333 C51.8481893,59.3333333 51.2424242,59.9390983 51.2424242,60.6818182 C51.2424242,61.424538 51.8481893,62.030303 52.5909091,62.030303 C53.3336289,62.030303 53.9393939,61.424538 53.9393939,60.6818182 C53.9393939,59.9390983 53.3336289,59.3333333 52.5909091,59.3333333 Z M57.9848485,59.3333333 C57.2421287,59.3333333 56.6363636,59.9390983 56.6363636,60.6818182 C56.6363636,61.424538 57.2421287,62.030303 57.9848485,62.030303 C58.7275683,62.030303 59.3333333,61.424538 59.3333333,60.6818182 C59.3333333,59.9390983 58.7275683,59.3333333 57.9848485,59.3333333 Z M63.3787879,59.3333333 C62.636068,59.3333333 62.030303,59.9390983 62.030303,60.6818182 C62.030303,61.424538 62.636068,62.030303 63.3787879,62.030303 C64.1215077,62.030303 64.7272727,61.424538 64.7272727,60.6818182 C64.7272727,59.9390983 64.1215077,59.3333333 63.3787879,59.3333333 Z M68.7727273,59.3333333 C68.0300074,59.3333333 67.4242424,59.9390983 67.4242424,60.6818182 C67.4242424,61.424538 68.0300074,62.030303 68.7727273,62.030303 C69.5154471,62.030303 70.1212121,61.424538 70.1212121,60.6818182 C70.1212121,59.9390983 69.5154471,59.3333333 68.7727273,59.3333333 Z M74.1666667,59.3333333 C73.4239468,59.3333333 72.8181818,59.9390983 72.8181818,60.6818182 C72.8181818,61.424538 73.4239468,62.030303 74.1666667,62.030303 C74.9093865,62.030303 75.5151515,61.424538 75.5151515,60.6818182 C75.5151515,59.9390983 74.9093865,59.3333333 74.1666667,59.3333333 Z M79.5606061,59.3333333 C78.8178862,59.3333333 78.2121212,59.9390983 78.2121212,60.6818182 C78.2121212,61.424538 78.8178862,62.030303 79.5606061,62.030303 C80.3033259,62.030303 80.9090909,61.424538 80.9090909,60.6818182 C80.9090909,59.9390983 80.3033259,59.3333333 79.5606061,59.3333333 Z M13.4848485,70.1212121 L18.8787879,70.1212121 L18.8787879,71.469697 C18.8787879,72.2334869 18.2940929,72.8181818 17.530303,72.8181818 L14.8333333,72.8181818 C14.0695434,72.8181818 13.4848485,72.2334869 13.4848485,71.469697 L13.4848485,70.1212121 Z M32.3636364,70.1212121 L37.7575758,70.1212121 L37.7575758,71.469697 C37.7575758,72.2334869 37.1728808,72.8181818 36.4090909,72.8181818 L33.7121212,72.8181818 C32.9483313,72.8181818 32.3636364,72.2334869 32.3636364,71.469697 L32.3636364,70.1212121 Z M51.2424242,70.1212121 L56.6363636,70.1212121 L56.6363636,71.469697 C56.6363636,72.2334869 56.0516687,72.8181818 55.2878788,72.8181818 L52.5909091,72.8181818 C51.8271192,72.8181818 51.2424242,72.2334869 51.2424242,71.469697 L51.2424242,70.1212121 Z M70.1212121,70.1212121 L75.5151515,70.1212121 L75.5151515,71.469697 C75.5151515,72.2334869 74.9304566,72.8181818 74.1666667,72.8181818 L71.469697,72.8181818 C70.7059071,72.8181818 70.1212121,72.2334869 70.1212121,71.469697 L70.1212121,70.1212121 Z" id="Shape"></path>
            </g>
        </g>
    </g>
</svg>