<?xml version="1.0" encoding="UTF-8" standalone="no"?>
<svg width="89px" height="97px" viewBox="0 0 89 97" version="1.1" xmlns="http://www.w3.org/2000/svg" xmlns:xlink="http://www.w3.org/1999/xlink">
    <!-- Generator: Sketch 47 (45396) - http://www.bohemiancoding.com/sketch -->
    <title>shield</title>
    <desc>Created with Sketch.</desc>
    <defs></defs>
    <g id="Page-1" stroke="none" stroke-width="1" fill="none" fill-rule="evenodd">
        <g id="shield" fill-rule="nonzero" fill="#000000">
            <path d="M64.5151549,38.0120575 L64.3556637,36.6435841 L63.0226327,36.2950664 C50.580354,33.0382965 45.8724115,28.8107965 45.835,28.775354 L44.4606195,27.4994248 L43.0803319,28.7674779 C43.0330752,28.8107965 38.3251327,33.0382965 25.882854,36.2950664 L24.549823,36.6435841 L24.3903319,38.0120575 C24.3647345,38.2325885 22.0491593,60.226615 43.7399558,68.4236726 L44.4527434,68.6934292 L45.165531,68.4236726 C66.8563274,60.226615 64.5407522,38.2325885 64.5151549,38.0120575 Z M44.4527434,64.373385 C29.1238717,58.1709513 28.2043363,44.2184292 28.3146018,39.8156858 C37.2500442,37.3169912 42.2474336,34.3595133 44.4527434,32.7980752 C46.6580531,34.3595133 51.6554425,37.3169912 60.5889159,39.8156858 C60.7011504,44.2243363 59.779646,58.1729204 44.4527434,64.373385 Z" id="Shape"></path>
            <path d="M88.4565487,64.9168363 C87.7536062,62.3216593 86.0819027,60.1557301 83.7702655,58.8305752 C83.1622301,58.4739845 82.5134358,58.1993053 81.8406195,57.9801527 L81.8406195,38.802031 C82.5093009,38.5842566 83.1541571,38.3113496 83.7584513,37.9569248 C86.0858407,36.6219248 87.7536062,34.4579646 88.4565487,31.8647566 C89.1614602,29.2597345 88.8070354,26.5365708 87.4562832,24.1894912 C84.6622345,19.3811283 78.4794912,17.7350221 73.6711283,20.5152876 C72.8183429,21.010104 72.0791704,21.6149889 71.4398274,22.292531 L54.0519447,13.0885133 C54.3597035,12.1158142 54.5341593,11.1131858 54.5341593,10.0814159 C54.5341593,4.52285398 50.0113053,-2.84217094e-14 44.4527434,-2.84217094e-14 C38.8941814,-2.84217094e-14 34.3713274,4.52285398 34.3713274,10.0814159 C34.3713274,11.1125951 34.5457832,12.1146327 34.8539358,13.0883164 L17.4632965,22.2939093 C16.8192279,21.6104602 16.0820243,21.0075442 15.2323894,20.5152876 C10.4240265,17.7350221 4.24325221,19.3850664 1.44526549,24.1973673 C0.0984513274,26.5365708 -0.255973451,29.2597345 0.448938053,31.8647566 C1.15188053,34.4599336 2.82358407,36.6258628 5.13522124,37.9510177 C5.74305973,38.3076084 6.39205088,38.5822876 7.06486726,38.8014403 L7.06486726,57.9795619 C6.39520133,58.1973363 5.75132965,58.4690619 5.1549115,58.818958 C2.82358407,60.155927 1.15188053,62.3218562 0.448938053,64.9170332 C-0.255973451,67.5220553 0.0984513274,70.245219 1.44920354,72.5922987 C3.32174779,75.8155951 6.71831858,77.6172544 10.2034956,77.6172544 C11.9165487,77.6172544 13.649292,77.1820996 15.2343584,76.2665022 C16.0828119,75.7738518 16.8192279,75.1711327 17.4629027,74.4876836 L34.853542,83.6932765 C34.5457832,84.6659757 34.3713274,85.668604 34.3713274,86.7003739 C34.3713274,92.2589358 38.8941814,96.7817898 44.4527434,96.7817898 C50.0113053,96.7817898 54.5341593,92.2589358 54.5341593,86.7003739 C54.5341593,85.6691947 54.3597035,84.6671571 54.0515509,83.6934735 L71.4421903,74.4878805 C72.0862588,75.1715265 72.8234624,75.7742456 73.6730973,76.2665022 C75.2561947,77.1820996 76.9889381,77.6172544 78.7000221,77.6172544 C82.1851991,77.6172544 85.5837389,75.8155951 87.4562832,72.5922987 L87.4602212,72.5844226 C88.8070354,70.2450221 89.1614602,67.5218584 88.4565487,64.9168363 Z M73.6965288,25.9226283 L73.7026327,25.9133739 C74.1828783,25.1342301 74.8523473,24.4917367 75.6931217,24.0045996 C76.6421925,23.4552412 77.6818385,23.1953296 78.7096704,23.1953296 C80.8027456,23.1953296 82.8426571,24.2782942 83.9669712,26.2099093 C84.7742721,27.6138252 84.986927,29.2481173 84.5635863,30.8115243 C84.1422146,32.3670553 83.1419491,33.6626748 81.7459093,34.4620996 L81.726219,34.4739137 C81.0705332,34.8598429 80.3360863,35.1118783 79.5425686,35.2241128 C77.1108208,35.5568783 74.7263296,34.4049978 73.4878119,32.2646659 C72.3506991,30.2850066 72.4192212,27.8753119 73.6965288,25.9226283 Z M44.4527434,4.03256637 C47.7882743,4.03256637 50.5015929,6.74588496 50.5015929,10.0814159 C50.5015929,11.1112168 50.2397124,12.1055752 49.7297345,13.0329867 C48.6644912,14.9429425 46.6423009,16.1302655 44.4527434,16.1302655 C42.2651549,16.1302655 40.2447367,14.9443208 39.1790996,13.0375155 C38.6657743,12.1047876 38.4038938,11.1106261 38.4038938,10.0814159 C38.4038938,6.74588496 41.1172124,4.03256637 44.4527434,4.03256637 Z M4.34170354,30.8113274 C3.91836283,29.2479204 4.1310177,27.6136283 4.93438053,26.2175885 C6.06066372,24.2780973 8.10451327,23.1951327 10.1975885,23.1951327 C11.2234513,23.1951327 12.2630973,23.4550442 13.2101991,24.0044027 C14.0549115,24.4927212 14.7263496,25.1365929 15.2382965,25.9675221 C16.4846903,27.8696018 16.5555752,30.2796903 15.4194469,32.260531 C15.1709558,32.6891881 14.8661504,33.0662566 14.5349602,33.4118208 C13.882031,34.0923164 13.0924513,34.604854 12.2211571,34.9169447 C11.875396,35.0407965 11.5223496,35.1445642 11.1570951,35.203635 C10.5726881,35.2983451 9.96878761,35.3075996 9.36272124,35.2239159 C8.56920354,35.1116814 7.83475664,34.859646 7.15938053,34.4619027 C5.76334071,33.6624779 4.76307522,32.3668584 4.34170354,30.8113274 Z M15.2382965,70.8140708 L15.2026571,70.8684159 C14.7224115,71.6475597 14.0529425,72.2900531 13.2121681,72.7771903 C10.3314823,74.4429867 6.61396018,73.4525664 4.93831858,70.5718805 C4.1310177,69.1679646 3.91836283,67.5336726 4.34170354,65.9702655 C4.76307522,64.4147345 5.76334071,63.119115 7.1790708,62.3078761 C7.83475664,61.9219469 8.56920354,61.6699115 9.36272124,61.557677 C9.65374336,61.5167212 9.94378097,61.5001814 10.2318496,61.5015597 C10.7036283,61.5033319 11.1641836,61.5753982 11.6133186,61.6840885 C11.695427,61.7039757 11.7785199,61.7193341 11.8594469,61.7427655 C12.2818031,61.8642544 12.6864381,62.0353628 13.0711858,62.2452611 C13.1552633,62.2911394 13.2373717,62.3397743 13.3194801,62.3895907 C13.697927,62.6205575 14.0556991,62.8871637 14.3780288,63.1996482 C14.4306018,63.2504491 14.4774646,63.3083385 14.5282655,63.3613053 C14.861031,63.7084447 15.1680022,64.0868916 15.4174779,64.5173208 C16.5555752,66.4979646 16.4866593,68.9100221 15.2382965,70.8140708 Z M44.4527434,92.7490265 C41.1172124,92.7490265 38.4038938,90.035708 38.4038938,86.700177 C38.4038938,85.6703761 38.6657743,84.6760177 39.1757522,83.7486062 C40.2409956,81.8386504 42.2631858,80.6513274 44.4527434,80.6513274 C46.6403319,80.6513274 48.66075,81.8372721 49.7263872,83.7440774 C50.2397124,84.6768053 50.5015929,85.6709668 50.5015929,86.700177 C50.5015929,90.035708 47.7882743,92.7490265 44.4527434,92.7490265 Z M71.7210044,60.3102987 C71.4890531,60.5357522 71.2699004,60.7755796 71.058427,61.0248584 C70.9678518,61.1315796 70.8731416,61.2329845 70.7865044,61.3440376 C70.5000111,61.7116549 70.2298606,62.0960088 69.9910177,62.5085199 C69.7728496,62.8879513 69.5887456,63.279 69.4239381,63.6751681 C69.3731372,63.796854 69.332969,63.9205088 69.2872876,64.043573 C69.1831261,64.3239624 69.0895973,64.6057301 69.011427,64.8914358 C68.9718496,65.0359624 68.9360133,65.1800951 68.9031305,65.3256062 C68.8411062,65.6000885 68.7930619,65.8755553 68.754469,66.1527942 C68.7339912,66.2986991 68.7093783,66.4436195 68.6955951,66.590115 C68.6658628,66.9063407 68.6558208,67.2229602 68.6564115,67.5395796 C68.6564115,67.6892257 68.6556239,67.8380841 68.6625155,67.9873363 C68.6784646,68.3287655 68.7087876,68.6694071 68.7599823,69.0080796 C68.788927,69.2020288 68.8344115,69.3922367 68.8749735,69.5844137 C68.9186858,69.7909646 68.9639735,69.9969248 69.0208783,70.2013097 C69.0779801,70.4058916 69.1433518,70.6075199 69.213646,70.8087544 C69.2429845,70.892635 69.2624779,70.9788783 69.2941792,71.0619712 L52.1183606,80.1549358 C52.0165619,80.0356128 51.9023584,79.9298761 51.7956372,79.8158695 C51.7074248,79.7215531 51.6209845,79.6264491 51.5292279,79.5358739 C51.2988518,79.3082544 51.0568584,79.0950088 50.806792,78.8914115 C50.7386637,78.8360819 50.675458,78.775042 50.6061482,78.7214845 C50.2814558,78.4710243 49.9425863,78.2404513 49.5903274,78.0315376 C49.5186549,77.9890066 49.4426504,77.9551394 49.3699934,77.9145774 C49.0882257,77.7566615 48.8007478,77.6097721 48.5044093,77.4796195 C48.3781947,77.4240929 48.2494204,77.3764425 48.1208429,77.3260354 C47.8650664,77.2258119 47.6065332,77.1350398 47.3424867,77.055885 C47.2024889,77.0139447 47.062885,76.9737765 46.9209181,76.9377434 C46.6456482,76.8680398 46.3668341,76.8134978 46.0848695,76.7670288 C45.9557013,76.7459602 45.8286991,76.7191814 45.6983496,76.7028385 C45.2876106,76.6514469 44.8727367,76.6187611 44.4527434,76.6187611 C44.03275,76.6187611 43.6178761,76.6514469 43.2071372,76.7028385 C43.0767876,76.7191814 42.9497854,76.7457633 42.8206173,76.7670288 C42.5388496,76.8134978 42.2598385,76.8680398 41.9845686,76.9377434 C41.8426018,76.9735796 41.7031947,77.0137478 41.5633938,77.0556881 C41.2983628,77.1352367 41.0388451,77.2264027 40.7820841,77.3270199 C40.6550819,77.3768363 40.5276858,77.4240929 40.4026527,77.4790288 C40.100604,77.6117412 39.807219,77.7611903 39.520135,77.9226504 C39.4535819,77.9602588 39.3836814,77.9911726 39.3181128,78.0301593 C38.9630973,78.2404513 38.6220619,78.4729934 38.2948097,78.7256195 C38.2319978,78.7740575 38.174896,78.8291903 38.1132655,78.8790066 C37.855323,79.0879204 37.6068319,79.3080575 37.369958,79.5423717 C37.2825332,79.6290088 37.1998341,79.719781 37.1153628,79.8099624 C37.0066726,79.9257412 36.8905,80.0336438 36.7871261,80.1549358 L19.6115044,71.0621681 C19.6558075,70.9456018 19.6843584,70.8252942 19.7241327,70.7075465 C19.7711925,70.5679425 19.8164801,70.4289292 19.8572389,70.2879469 C19.9407257,69.9992876 20.0076726,69.7082655 20.0643805,69.4146836 C20.0874181,69.2953606 20.1167566,69.1778097 20.1354624,69.0580929 C20.1996527,68.6455819 20.2431681,68.2305111 20.2549823,67.8140619 C20.2561637,67.7748783 20.2514381,67.7356947 20.2522257,67.6965111 C20.2585265,67.3198363 20.2421836,66.9435553 20.2057566,66.5676681 C20.1927611,66.4337743 20.1701173,66.3014558 20.1518053,66.1677588 C20.1126217,65.8828407 20.0630022,65.5994978 19.9988119,65.3173363 C19.9657323,65.1716283 19.9300929,65.0272987 19.8903186,64.8827721 C19.8127389,64.6002168 19.719604,64.3214027 19.6168208,64.0441637 C19.5701549,63.918146 19.5288053,63.7913407 19.476823,63.6667013 C19.3120155,63.2715177 19.1281084,62.8816504 18.910531,62.5030066 C18.673854,62.0942367 18.4066571,61.7130332 18.1231173,61.3483695 C18.0278164,61.2256991 17.923458,61.1138584 17.8232345,60.9965044 C17.6237721,60.7629779 17.4187965,60.5375243 17.2010221,60.3250664 C17.0746106,60.2016084 16.9456394,60.0836637 16.8133208,59.9674912 C16.5977124,59.7782677 16.3748186,59.6010553 16.1450332,59.4319159 C16.0064137,59.3297235 15.8705509,59.2247743 15.7272058,59.1300642 C15.4513451,58.9477323 15.1646549,58.7854845 14.8728451,58.6317035 C14.7675022,58.576177 14.6678695,58.5102146 14.5605575,58.4584292 C14.1673429,58.2688119 13.7607389,58.1087301 13.3452743,57.9718827 C13.2033075,57.9252168 13.0575996,57.8933186 12.9134668,57.8531504 C12.6196881,57.7706482 12.3243341,57.6970066 12.0224823,57.641677 C11.8557058,57.6111571 11.6883385,57.5887102 11.519396,57.5666571 C11.3782168,57.5481482 11.2399912,57.51625 11.0974336,57.5038451 L11.0974336,39.2785354 C11.1732412,39.2718407 11.2464889,39.2533319 11.3220996,39.2450619 C11.5119137,39.2239934 11.6983805,39.1926858 11.885635,39.1609845 C12.1132544,39.1223916 12.3389049,39.0794668 12.5623894,39.0255155 C12.7468872,38.9810155 12.9280376,38.9300177 13.109385,38.8752788 C13.3287345,38.8089226 13.5447367,38.7354779 13.758573,38.654354 C13.9342102,38.587604 14.1078783,38.5180973 14.2793805,38.4416991 C14.4902633,38.3477765 14.6958296,38.2442058 14.8998208,38.1357124 C15.0634469,38.0486814 15.2264823,37.9622412 15.3851858,37.8663496 C15.5862235,37.7448606 15.7791881,37.6111637 15.9715619,37.4754978 C16.1208142,37.3703518 16.2712478,37.2685531 16.4149867,37.1549403 C16.606573,37.0035221 16.7867389,36.837927 16.9674956,36.672135 C17.0968606,36.5535996 17.2301637,36.4411681 17.3538186,36.3155442 C17.5450111,36.1212013 17.7208451,35.9093341 17.8972699,35.6980575 C17.9939491,35.5824757 18.0979137,35.4751637 18.1898673,35.3544624 C18.4505664,35.0124425 18.6945288,34.6530951 18.9146659,34.273073 C19.1326372,33.8936416 19.3167412,33.5027898 19.4815487,33.1066217 C19.5323496,32.9843451 19.5729115,32.8604934 19.6185929,32.7370354 C19.7223606,32.4576305 19.8156925,32.1766504 19.8938628,31.8919292 C19.9338341,31.7464181 19.9696704,31.601104 20.0029469,31.4544115 C20.0647743,31.1805199 20.1126217,30.9058407 20.1512146,30.6291925 C20.1716925,30.4830907 20.1963053,30.3381704 20.2102854,30.1914779 C20.2400177,29.8752522 20.2500597,29.5586327 20.249469,29.2418164 C20.249469,29.0921704 20.2502566,28.9435088 20.243365,28.7942566 C20.2274159,28.4526305 20.1970929,28.111792 20.1458982,27.7731195 C20.1169535,27.5789735 20.0712721,27.3885686 20.0309071,27.1963916 C19.9873916,26.9904314 19.9423009,26.7850619 19.885396,26.5814646 C19.8280973,26.3758982 19.7623319,26.1738761 19.6916438,25.9716571 C19.6625022,25.8881704 19.6432058,25.8025177 19.6117013,25.7196217 L36.7875199,16.6266571 C36.8893186,16.7459801 37.0035221,16.8517168 37.1102434,16.9657235 C37.1984558,17.0600398 37.2850929,17.1551438 37.3766527,17.245719 C37.6064381,17.4727478 37.8478407,17.6854027 38.0975133,17.8886062 C38.1662323,17.9447235 38.2306195,18.006354 38.3007168,18.0605022 C38.6254093,18.3107655 38.9636881,18.5411416 39.31575,18.7500553 C39.3874226,18.7925863 39.463427,18.8264535 39.5360841,18.8670155 C39.8178518,19.0249314 40.1053296,19.1718208 40.4016681,19.3019735 C40.5278827,19.3576969 40.6566571,19.4051504 40.7852345,19.4555575 C41.0406173,19.555781 41.2993473,19.6463562 41.563,19.7255111 C41.7035885,19.7676482 41.8437832,19.8080133 41.9863407,19.8440465 C42.2606261,19.9133562 42.5386527,19.9678982 42.8196327,20.0143673 C42.9493916,20.0358296 43.0769845,20.0624115 43.2079248,20.0789513 C43.6186637,20.130146 44.0331438,20.1630288 44.4531372,20.1630288 C44.8731305,20.1630288 45.2878075,20.130146 45.6983496,20.0789513 C45.8290929,20.0626084 45.9564889,20.0358296 46.0860509,20.0145642 C46.3676217,19.9680951 46.6462389,19.9133562 46.921115,19.8438496 C47.0626881,19.8080133 47.2020951,19.7678451 47.341896,19.7259049 C47.6073208,19.6463562 47.8670354,19.5551903 48.1237965,19.4543761 C48.2507987,19.4045597 48.3781947,19.3575 48.503031,19.3025642 C48.8050796,19.1698518 49.0984646,19.0204027 49.3855487,18.8589425 C49.4521018,18.8213341 49.5220022,18.7904204 49.5875708,18.7514336 C49.9423894,18.5411416 50.2832279,18.3087965 50.6102832,18.0563673 C50.6738827,18.0073385 50.7317721,17.9514181 50.7941903,17.9006173 C51.0513451,17.6920973 51.2994425,17.4727478 51.5357257,17.2388274 C51.6231504,17.1521903 51.7058496,17.0614181 51.7903208,16.9712367 C51.8990111,16.855458 52.0149867,16.7475553 52.1185575,16.6264602 L69.2943761,25.7194248 C69.2526327,25.8290996 69.2260509,25.9427124 69.1884425,26.0533717 C69.1398075,26.1965199 69.0935354,26.3392743 69.0515951,26.4841947 C68.9690929,26.7685221 68.9027367,27.0550155 68.8460288,27.3438717 C68.8218097,27.4675265 68.7916836,27.5898031 68.7723872,27.7140487 C68.7076062,28.1273473 68.6631062,28.5428119 68.6508982,28.9602456 C68.6503075,28.9819049 68.6530642,29.0035642 68.6524735,29.0252235 C68.6434159,29.420604 68.6617279,29.8159845 68.699927,30.2107743 C68.7123319,30.3397456 68.7345819,30.4675354 68.7519093,30.5961128 C68.7914867,30.8873319 68.8418938,31.1767788 68.9072655,31.4648473 C68.9395575,31.607208 68.9748031,31.7483872 69.013396,31.8897633 C69.0917633,32.1760597 69.1854889,32.458615 69.2898473,32.7395951 C69.3359226,32.8638407 69.3766814,32.9884801 69.4278761,33.1113473 C69.5930774,33.5077124 69.7771814,33.8987611 69.9955465,34.2785863 C70.2146991,34.6570332 70.4570863,35.0148053 70.7168009,35.3554469 C70.8097389,35.4775265 70.9152788,35.5860199 71.0129425,35.7029801 C71.1879889,35.9124845 71.3622478,36.1221858 71.551865,36.3151504 C71.6782765,36.4439248 71.814927,36.558719 71.9472456,36.6800111 C72.124458,36.8420619 72.3004889,37.0043097 72.4879403,37.1523805 C72.6369956,37.2703252 72.7931394,37.375865 72.9481018,37.4847522 C73.1339779,37.6154956 73.3202478,37.7444668 73.5141969,37.8620177 C73.679792,37.9624381 73.849719,38.0526195 74.0208274,38.1429978 C74.2173363,38.2469624 74.4150265,38.3465951 74.6180332,38.4371704 C74.7958363,38.5165221 74.9756084,38.5885885 75.1579403,38.6575044 C75.3662633,38.7362655 75.5765553,38.8075442 75.7899978,38.8723252 C75.9748894,38.9282456 76.1599779,38.9804248 76.3484137,39.0257124 C76.5697323,39.079073 76.792823,39.1214071 77.0182765,39.1596062 C77.2065155,39.1913075 77.3937699,39.2228119 77.5841748,39.2440774 C77.6595885,39.2523473 77.7328363,39.2708562 77.8086438,39.2775509 L77.8086438,57.5028606 C77.6670708,57.5152655 77.5298296,57.5469668 77.3894381,57.5654757 C77.2214801,57.5875288 77.0549004,57.6095819 76.8889115,57.6401018 C76.5780022,57.6970066 76.2733938,57.7728142 75.9707544,57.8584668 C75.8382389,57.8960752 75.7035575,57.924823 75.5730111,57.9677478 C75.1478982,58.1071549 74.7320398,58.2711748 74.3299646,58.4659115 C74.2628208,58.4984004 74.2011903,58.5403407 74.1348341,58.5744049 C73.7989181,58.7464978 73.4724535,58.9355243 73.1574093,59.1448319 C73.0355265,59.2259558 72.9199447,59.3155465 72.8016062,59.4021836 C72.5489801,59.5864845 72.3046239,59.7806305 72.0689314,59.9891504 C71.950396,60.0940996 71.8346173,60.1998363 71.7210044,60.3102987 Z M83.9671681,70.5699115 C82.2895575,73.4565044 78.5740044,74.4488938 75.6952876,72.7771903 C74.8505752,72.2888717 74.1791372,71.645 73.6671903,70.8140708 C72.4188274,68.9100221 72.3499115,66.4979646 73.4840708,64.523031 C73.7351217,64.0896482 74.0436681,63.7086416 74.3784027,63.359927 C74.4274314,63.3089292 74.4723252,63.2534027 74.5229292,63.204177 C74.8480155,62.888542 75.2085442,62.6191792 75.5899447,62.3868341 C75.6683119,62.3391836 75.7472699,62.2923208 75.8276062,62.2482146 C76.2153075,62.0359535 76.6232898,61.8634668 77.0487965,61.7413872 C77.1269668,61.7189403 77.2075,61.7039757 77.2866549,61.6846792 C77.737365,61.5752013 78.1994956,61.5033319 78.6728496,61.5015597 C78.9609181,61.4999845 79.2513496,61.5167212 79.5423717,61.5574801 C80.3358894,61.6697146 81.0703363,61.92175 81.7457124,62.3194934 C83.1417522,63.1189181 84.1420177,64.4145376 84.5633894,65.9700686 C84.9851549,67.5336726 84.774469,69.1659956 83.9671681,70.5699115 Z" id="Shape"></path>
        </g>
    </g>
</svg>