<?xml version="1.0" encoding="UTF-8" standalone="no"?>
<svg width="89px" height="89px" viewBox="0 0 89 89" version="1.1" xmlns="http://www.w3.org/2000/svg" xmlns:xlink="http://www.w3.org/1999/xlink">
    <!-- Generator: Sketch 47 (45396) - http://www.bohemiancoding.com/sketch -->
    <title>icons8-training</title>
    <desc>Created with Sketch.</desc>
    <defs></defs>
    <g id="Page-1" stroke="none" stroke-width="1" fill="none" fill-rule="evenodd">
        <g id="icons8-training" fill-rule="nonzero" fill="#262626">
            <path d="M18.6612903,0 C13.1268268,0 8.61290323,4.51392353 8.61290323,10.0483871 C8.61290323,15.5828507 13.1268268,20.0967742 18.6612903,20.0967742 C24.1957539,20.0967742 28.7096774,15.5828507 28.7096774,10.0483871 C28.7096774,4.51392353 24.1957539,0 18.6612903,0 Z M18.6612903,2.87096774 C22.6425158,2.87096774 25.8387097,6.06716302 25.8387097,10.0483871 C25.8387097,14.0296126 22.6425158,17.2258065 18.6612903,17.2258065 C14.6800662,17.2258065 11.483871,14.0296126 11.483871,10.0483871 C11.483871,6.06716302 14.6800662,2.87096774 18.6612903,2.87096774 Z M53.1129032,4.30645161 L53.1129032,8.61290323 L31.5806452,8.61290323 L31.5806452,11.483871 L86.1290323,11.483871 L86.1290323,60.2903226 L33.016129,60.2903226 L33.016129,63.1612903 L53.1129032,63.1612903 L53.1129032,65.364982 L42.2121976,77.5778103 C42.0215481,77.5329515 41.8252902,77.516129 41.6290323,77.516129 C40.0421493,77.516129 38.7580645,78.8002139 38.7580645,80.3870968 C38.7580645,81.9739797 40.0421493,83.2580645 41.6290323,83.2580645 C43.2159152,83.2580645 44.5,81.9739797 44.5,80.3870968 C44.5,80.0843001 44.4495341,79.781502 44.3542094,79.4899194 L53.1129032,69.682649 L53.1129032,73.2096774 L55.983871,73.2096774 L55.983871,69.8676915 L64.7313508,79.5123488 C64.6416331,79.7927175 64.5967742,80.0899071 64.5967742,80.3870968 C64.5967742,81.9739797 65.880859,83.2580645 67.4677419,83.2580645 C69.0546249,83.2580645 70.3387097,81.9739797 70.3387097,80.3870968 C70.3387097,78.8002139 69.0546249,77.516129 67.4677419,77.516129 C67.265877,77.516129 67.0584051,77.5385585 66.8621472,77.5834173 L55.983871,65.5892764 L55.983871,63.1612903 L89,63.1612903 L89,8.61290323 L55.983871,8.61290323 L55.983871,4.30645161 L53.1129032,4.30645161 Z M80.3870968,14.3548387 C79.5964595,14.3548387 78.9516129,14.9996853 78.9516129,15.7903226 C78.9516129,16.5809598 79.5964595,17.2258065 80.3870968,17.2258065 C81.177734,17.2258065 81.8225806,16.5809598 81.8225806,15.7903226 C81.8225806,14.9996853 81.177734,14.3548387 80.3870968,14.3548387 Z M80.3870968,20.0967742 C79.5964595,20.0967742 78.9516129,20.7416208 78.9516129,21.5322581 C78.9516129,22.3228953 79.5964595,22.9677419 80.3870968,22.9677419 C81.177734,22.9677419 81.8225806,22.3228953 81.8225806,21.5322581 C81.8225806,20.7416208 81.177734,20.0967742 80.3870968,20.0967742 Z M8.61290323,22.9677419 C3.87468534,22.9677419 0,26.8424273 0,31.5806452 L0,55.266129 C0,58.0249496 2.26537298,60.2903226 5.02419355,60.2903226 C5.80361679,60.2903226 6.51575173,60.0772437 7.17741935,59.7520161 L7.17741935,83.9758065 C7.17741935,86.734627 9.44279234,89 12.2016129,89 C14.9604335,89 17.2258065,86.734627 17.2258065,83.9758065 L17.2258065,63.1612903 L20.0967742,63.1612903 L20.0967742,83.9758065 C20.0967742,86.734627 22.3621472,89 25.1209677,89 C27.8797883,89 30.1451613,86.734627 30.1451613,83.9758065 L30.1451613,33.016129 L53.8306452,33.016129 C56.5894657,33.016129 58.8548387,30.750756 58.8548387,27.9919355 C58.8548387,25.2331149 56.5894657,22.9677419 53.8306452,22.9677419 L22.1546753,22.9677419 L18.6612903,28.7937882 L15.1679054,22.9677419 L8.61290323,22.9677419 Z M8.61290323,25.8387097 L13.541772,25.8387097 L18.6612903,34.3675022 L23.7808086,25.8387097 L53.8306452,25.8387097 C55.0362277,25.8387097 55.983871,26.786353 55.983871,27.9919355 C55.983871,29.197518 55.0362277,30.1451613 53.8306452,30.1451613 L27.2741935,30.1451613 L27.2741935,83.9758065 C27.2741935,85.181389 26.3265503,86.1290323 25.1209677,86.1290323 C23.9153852,86.1290323 22.9677419,85.181389 22.9677419,83.9758065 L22.9677419,60.2903226 L14.3548387,60.2903226 L14.3548387,83.9758065 C14.3548387,85.181389 13.4071954,86.1290323 12.2016129,86.1290323 C10.9960304,86.1290323 10.0483871,85.181389 10.0483871,83.9758065 L10.0483871,55.266129 L7.17741935,55.266129 C7.17741935,56.4717115 6.22977606,57.4193548 5.02419355,57.4193548 C3.81861103,57.4193548 2.87096774,56.4717115 2.87096774,55.266129 L2.87096774,31.5806452 C2.87096774,28.3956653 5.42792339,25.8387097 8.61290323,25.8387097 Z M80.3870968,25.8387097 C79.5964595,25.8387097 78.9516129,26.4835563 78.9516129,27.2741935 C78.9516129,28.0648308 79.5964595,28.7096774 80.3870968,28.7096774 C81.177734,28.7096774 81.8225806,28.0648308 81.8225806,27.2741935 C81.8225806,26.4835563 81.177734,25.8387097 80.3870968,25.8387097 Z M80.3870968,31.5806452 C79.5964595,31.5806452 78.9516129,32.2254918 78.9516129,33.016129 C78.9516129,33.8067663 79.5964595,34.4516129 80.3870968,34.4516129 C81.177734,34.4516129 81.8225806,33.8067663 81.8225806,33.016129 C81.8225806,32.2254918 81.177734,31.5806452 80.3870968,31.5806452 Z M8.61290323,33.016129 C7.82226598,33.016129 7.17741935,33.6609757 7.17741935,34.4516129 C7.17741935,35.2422501 7.82226598,35.8870968 8.61290323,35.8870968 C9.40354047,35.8870968 10.0483871,35.2422501 10.0483871,34.4516129 C10.0483871,33.6609757 9.40354047,33.016129 8.61290323,33.016129 Z M80.3870968,37.3225806 C79.5964595,37.3225806 78.9516129,37.9674273 78.9516129,38.7580645 C78.9516129,39.5487018 79.5964595,40.1935484 80.3870968,40.1935484 C81.177734,40.1935484 81.8225806,39.5487018 81.8225806,38.7580645 C81.8225806,37.9674273 81.177734,37.3225806 80.3870968,37.3225806 Z M8.61290323,38.7580645 C7.82226598,38.7580645 7.17741935,39.4029111 7.17741935,40.1935484 C7.17741935,40.9841856 7.82226598,41.6290323 8.61290323,41.6290323 C9.40354047,41.6290323 10.0483871,40.9841856 10.0483871,40.1935484 C10.0483871,39.4029111 9.40354047,38.7580645 8.61290323,38.7580645 Z M80.3870968,43.0645161 C79.5964595,43.0645161 78.9516129,43.7093628 78.9516129,44.5 C78.9516129,45.2906372 79.5964595,45.9354839 80.3870968,45.9354839 C81.177734,45.9354839 81.8225806,45.2906372 81.8225806,44.5 C81.8225806,43.7093628 81.177734,43.0645161 80.3870968,43.0645161 Z M8.61290323,44.5 C7.82226598,44.5 7.17741935,45.1448466 7.17741935,45.9354839 C7.17741935,46.7261211 7.82226598,47.3709677 8.61290323,47.3709677 C9.40354047,47.3709677 10.0483871,46.7261211 10.0483871,45.9354839 C10.0483871,45.1448466 9.40354047,44.5 8.61290323,44.5 Z M80.3870968,48.8064516 C79.5964595,48.8064516 78.9516129,49.4512982 78.9516129,50.2419355 C78.9516129,51.0325727 79.5964595,51.6774194 80.3870968,51.6774194 C81.177734,51.6774194 81.8225806,51.0325727 81.8225806,50.2419355 C81.8225806,49.4512982 81.177734,48.8064516 80.3870968,48.8064516 Z M8.61290323,50.2419355 C7.82226598,50.2419355 7.17741935,50.8867821 7.17741935,51.6774194 C7.17741935,52.4680566 7.82226598,53.1129032 8.61290323,53.1129032 C9.40354047,53.1129032 10.0483871,52.4680566 10.0483871,51.6774194 C10.0483871,50.8867821 9.40354047,50.2419355 8.61290323,50.2419355 Z M80.3870968,54.5483871 C79.5964595,54.5483871 78.9516129,55.1932337 78.9516129,55.983871 C78.9516129,56.7745082 79.5964595,57.4193548 80.3870968,57.4193548 C81.177734,57.4193548 81.8225806,56.7745082 81.8225806,55.983871 C81.8225806,55.1932337 81.177734,54.5483871 80.3870968,54.5483871 Z" id="Shape"></path>
        </g>
    </g>
</svg>