<?xml version="1.0" encoding="UTF-8" standalone="no"?>
<svg width="85px" height="98px" viewBox="0 0 85 98" version="1.1" xmlns="http://www.w3.org/2000/svg" xmlns:xlink="http://www.w3.org/1999/xlink">
    <!-- Generator: Sketch 47 (45396) - http://www.bohemiancoding.com/sketch -->
    <title>icons8-robot_2</title>
    <desc>Created with Sketch.</desc>
    <defs></defs>
    <g id="Page-1" stroke="none" stroke-width="1" fill="none" fill-rule="evenodd">
        <g id="icons8-robot_2" fill-rule="nonzero" fill="#262626">
            <path d="M29.3515625,0 C28.3388682,0.1909185 27.6083995,1.08740287 27.625,2.125 L27.625,6.375 C26.4545904,6.375 25.5,7.32959038 25.5,8.5 L25.5,12.75 C25.5,13.9204096 26.4545904,14.875 27.625,14.875 L27.625,17 L19.125,17 C19.0585937,17 18.9921875,17 18.9257812,17 C18.0458995,17.0747065 17.3071284,17.6806651 17.0664062,18.5273438 L4.9140625,30.7460938 C4.515625,31.1528315 4.29980575,31.7089844 4.31640625,32.2734375 C1.82617188,33.145019 6.32198287e-16,35.4858404 6.32198287e-16,38.25 C6.32198287e-16,39.2294933 0.265625,40.1425781 0.6640625,40.9726562 C0.240722125,41.3710938 0.00830025,41.9189464 6.32198287e-16,42.5 L6.32198287e-16,59.5 C0.00830025,60.0810558 0.240722125,60.6289063 0.6640625,61.0273438 C0.265625,61.8574219 6.32198287e-16,62.7705089 6.32198287e-16,63.75 C-0.00830025,64.5136719 0.39013725,65.2275401 1.05419975,65.6176753 C1.71826225,65.9995123 2.53173775,65.9995123 3.19580025,65.6176753 C3.85986275,65.2275401 4.25830025,64.5136719 4.25,63.75 C4.25,62.5463873 5.17138725,61.625 6.375,61.625 C7.57861275,61.625 8.5,62.5463873 8.5,63.75 C8.49169975,64.5136719 8.89013725,65.2275401 9.55419975,65.6176753 C10.2182622,65.9995123 11.0317378,65.9995123 11.6958003,65.6176753 C12.3598627,65.2275401 12.7583002,64.5136719 12.75,63.75 C12.75,62.7705089 12.484375,61.8574219 12.0859375,61.0273438 C12.5092779,60.6289063 12.7416997,60.0810558 12.75,59.5 L12.75,42.5 C12.7416997,41.9189464 12.5092779,41.3710938 12.0859375,40.9726562 C12.1855469,40.7651373 12.276856,40.5244151 12.3515625,40.3085938 C12.9160156,40.3251964 13.4721685,40.109375 13.8789062,39.7109375 L17,36.5898438 L17,53.125 C17,54.2954096 17.9545904,55.25 19.125,55.25 L21.25,55.25 L21.25,70.125 C21.25,71.2954096 22.2045904,72.25 23.375,72.25 L23.7734375,72.25 C23.5327154,72.9223628 23.375,73.6279308 23.375,74.375 C23.375,75.1220714 23.5327154,75.8276373 23.7734375,76.5 L23.375,76.5 C23.3085937,76.5 23.2421875,76.5 23.1757812,76.5 C23.109375,76.5 23.0429687,76.5 22.9765625,76.5 C21.9638683,76.6909185 21.2333995,77.5874029 21.25,78.625 L21.25,93.5 C21.1835937,93.5 21.1171875,93.5 21.0507812,93.5 C20.984375,93.5 20.9179687,93.5 20.8515625,93.5 C19.6811529,93.6079096 18.8178716,94.6538091 18.9257812,95.8242188 C19.0336909,96.9946284 20.0795904,97.8579096 21.25,97.75 L38.25,97.75 C39.0136719,97.7583003 39.7275401,97.3598628 40.1176752,96.6958003 C40.4995122,96.0317378 40.4995122,95.2182623 40.1176752,94.5541998 C39.7275401,93.8901373 39.0136719,93.4916998 38.25,93.5 L38.25,78.625 C38.25,77.4545904 37.2954096,76.5 36.125,76.5 L35.7265625,76.5 C35.9672846,75.8276373 36.125,75.1220714 36.125,74.375 C36.125,73.6279308 35.9672846,72.9223628 35.7265625,72.25 L36.125,72.25 C37.2954096,72.25 38.25,71.2954096 38.25,70.125 L38.25,55.25 L46.75,55.25 L46.75,70.125 C46.75,71.2954096 47.7045904,72.25 48.875,72.25 L49.2734375,72.25 C49.0327154,72.9223628 48.875,73.6279308 48.875,74.375 C48.875,75.1220714 49.0327154,75.8276373 49.2734375,76.5 L48.875,76.5 C48.8085937,76.5 48.7421875,76.5 48.6757812,76.5 C48.609375,76.5 48.5429687,76.5 48.4765625,76.5 C47.4638682,76.6909185 46.7333995,77.5874029 46.75,78.625 L46.75,93.5 C46.6835937,93.5 46.6171875,93.5 46.5507812,93.5 C46.484375,93.5 46.4179687,93.5 46.3515625,93.5 C45.1811529,93.6079096 44.3178716,94.6538091 44.4257812,95.8242188 C44.5336909,96.9946284 45.5795904,97.8579096 46.75,97.75 L63.75,97.75 C64.5136719,97.7583003 65.2275401,97.3598628 65.6176752,96.6958003 C65.9995122,96.0317378 65.9995122,95.2182623 65.6176752,94.5541998 C65.2275401,93.8901373 64.5136719,93.4916998 63.75,93.5 L63.75,78.625 C63.75,77.4545904 62.7954096,76.5 61.625,76.5 L61.2265625,76.5 C61.4672846,75.8276373 61.625,75.1220714 61.625,74.375 C61.625,73.6279308 61.4672846,72.9223628 61.2265625,72.25 L61.625,72.25 C62.7954096,72.25 63.75,71.2954096 63.75,70.125 L63.75,55.25 L65.875,55.25 C67.0454096,55.25 68,54.2954096 68,53.125 L68,36.5898438 L71.1210938,39.7109375 C71.5278315,40.109375 72.0839844,40.3251964 72.6484375,40.3085938 C72.723144,40.5327154 72.8144531,40.756837 72.9140625,40.9726562 C72.4907221,41.3710938 72.2583003,41.9189464 72.25,42.5 L72.25,59.5 C72.2583003,60.0810558 72.4907221,60.6289063 72.9140625,61.0273438 C72.515625,61.8574219 72.25,62.7705089 72.25,63.75 C72.2416997,64.5136719 72.6401372,65.2275401 73.3041997,65.6176753 C73.9682622,65.9995123 74.7817377,65.9995123 75.4458003,65.6176753 C76.1098627,65.2275401 76.5083002,64.5136719 76.5,63.75 C76.5,62.5463873 77.4213872,61.625 78.625,61.625 C79.8286127,61.625 80.75,62.5463873 80.75,63.75 C80.7416997,64.5136719 81.1401372,65.2275401 81.8041997,65.6176753 C82.4682622,65.9995123 83.2817377,65.9995123 83.9458003,65.6176753 C84.6098627,65.2275401 85.0083003,64.5136719 85,63.75 C85,62.7705089 84.734375,61.8574219 84.3359375,61.0273438 C84.7592779,60.6289063 84.9916997,60.0810558 85,59.5 L85,42.5 C84.9916997,41.9189464 84.7592779,41.3710938 84.3359375,40.9726562 C84.734375,40.1425781 85,39.2294933 85,38.25 C85,35.4858404 83.1738281,33.145019 80.6835938,32.2734375 C80.7001964,31.7089844 80.484375,31.1528315 80.0859375,30.7460938 L67.9335938,18.5273438 C67.676269,17.6391596 66.8710938,17.0166026 65.9414062,17 C65.7919932,16.9584966 65.6342779,16.941894 65.4765625,16.9335938 C65.34375,16.941894 65.2109375,16.9667969 65.078125,17 L57.375,17 L57.375,14.875 C58.5454096,14.875 59.5,13.9204096 59.5,12.75 L59.5,8.5 C59.5,7.32959038 58.5454096,6.375 57.375,6.375 L57.375,2.125 C57.375,0.954590375 56.4204096,0 55.25,0 L29.75,0 C29.6835937,0 29.6171875,0 29.5507812,0 C29.484375,0 29.4179687,0 29.3515625,0 Z M31.875,4.25 L53.125,4.25 L53.125,17 L31.875,17 L31.875,4.25 Z M38.25,8.5 C37.0795904,8.5 36.125,9.45459038 36.125,10.625 C36.125,11.7954096 37.0795904,12.75 38.25,12.75 C39.4204096,12.75 40.375,11.7954096 40.375,10.625 C40.375,9.45459038 39.4204096,8.5 38.25,8.5 Z M46.75,8.5 C45.5795904,8.5 44.625,9.45459038 44.625,10.625 C44.625,11.7954096 45.5795904,12.75 46.75,12.75 C47.9204096,12.75 48.875,11.7954096 48.875,10.625 C48.875,9.45459038 47.9204096,8.5 46.75,8.5 Z M21.25,21.25 L63.75,21.25 L63.75,31.4765625 C63.75,31.5429687 63.75,31.609375 63.75,31.6757812 L63.75,51 L21.25,51 L21.25,31.7421875 C21.2583003,31.609375 21.2583003,31.4765625 21.25,31.34375 L21.25,21.25 Z M17,24.6367188 L17,30.6132812 L12.3515625,35.1953125 L9.4296875,32.2734375 L17,24.6367188 Z M68,24.6367188 L75.5703125,32.2734375 L72.6484375,35.1953125 L68,30.6132812 L68,24.6367188 Z M29.3515625,27.625 C28.3388682,27.8159185 27.6083995,28.7124029 27.625,29.75 L27.625,42.5 C27.625,43.6704096 28.5795904,44.625 29.75,44.625 L55.25,44.625 C56.4204096,44.625 57.375,43.6704096 57.375,42.5 L57.375,29.75 C57.375,28.5795904 56.4204096,27.625 55.25,27.625 L29.75,27.625 C29.6835937,27.625 29.6171875,27.625 29.5507812,27.625 C29.484375,27.625 29.4179687,27.625 29.3515625,27.625 Z M31.875,31.875 L53.125,31.875 L53.125,40.375 L48.875,40.375 L48.875,34 L44.625,34 L44.625,40.375 L40.375,40.375 L40.375,36.125 L36.125,36.125 L36.125,40.375 L31.875,40.375 L31.875,31.875 Z M6.375,36.125 C6.97265625,36.125 7.52050888,36.3408214 7.90234375,36.7226562 C8.28418075,37.1044932 8.5,37.6523437 8.5,38.25 C8.5,39.4453125 7.5703125,40.375 6.375,40.375 C5.1796875,40.375 4.25,39.4453125 4.25,38.25 C4.25,37.0546875 5.1796875,36.125 6.375,36.125 Z M78.625,36.125 C79.8203125,36.125 80.75,37.0546875 80.75,38.25 C80.75,39.4453125 79.8203125,40.375 78.625,40.375 C77.4296875,40.375 76.5,39.4453125 76.5,38.25 C76.5,37.0546875 77.4296875,36.125 78.625,36.125 Z M4.25,44.625 L8.5,44.625 L8.5,57.375 L4.25,57.375 L4.25,44.625 Z M76.5,44.625 L80.75,44.625 L80.75,57.375 L76.5,57.375 L76.5,44.625 Z M25.5,55.25 L34,55.25 L34,68 L25.5,68 L25.5,55.25 Z M51,55.25 L59.5,55.25 L59.5,68 L51,68 L51,55.25 Z M29.75,72.25 C30.9453125,72.25 31.875,73.1796875 31.875,74.375 C31.875,75.5703125 30.9453125,76.5 29.75,76.5 C28.5546875,76.5 27.625,75.5703125 27.625,74.375 C27.625,73.1796875 28.5546875,72.25 29.75,72.25 Z M55.25,72.25 C56.4453125,72.25 57.375,73.1796875 57.375,74.375 C57.375,75.5703125 56.4453125,76.5 55.25,76.5 C54.0546875,76.5 53.125,75.5703125 53.125,74.375 C53.125,73.1796875 54.0546875,72.25 55.25,72.25 Z M25.5,80.75 L34,80.75 L34,93.5 L25.5,93.5 L25.5,80.75 Z M51,80.75 L59.5,80.75 L59.5,93.5 L51,93.5 L51,80.75 Z" id="Shape"></path>
        </g>
    </g>
</svg>