<?xml version="1.0" encoding="UTF-8" standalone="no"?>
<svg width="100px" height="58px" viewBox="0 0 100 58" version="1.1" xmlns="http://www.w3.org/2000/svg" xmlns:xlink="http://www.w3.org/1999/xlink">
    <!-- Generator: Sketch 47 (45396) - http://www.bohemiancoding.com/sketch -->
    <title>Group 6</title>
    <desc>Created with Sketch.</desc>
    <defs></defs>
    <g id="Page-1" stroke="none" stroke-width="1" fill="none" fill-rule="evenodd">
        <g id="Group-5" transform="translate(-165.000000, -2.000000)">
            <g id="Group-6" transform="translate(165.000000, 0.000000)">
                <g id="Group-4" transform="translate(35.000000, 0.000000)">
                    <g id="icons8-notebook" transform="translate(0.000000, 2.500000)"></g>
                    <path d="M6.68370262,2.5 C5.25848568,2.5 4.04727976,3.65201892 4.04727976,5.07669401 L4.04727976,38.6338228 C4.04727976,39.1130098 4.17691333,39.5489367 4.38874414,39.9300096 C4.30025669,40.0813508 4.22023168,40.2438387 4.16110127,40.4291463 C4.16051211,40.4297261 2.88465284,44.4428527 0.333523441,52.4685261 C0.118898043,52.707897 0.000283373807,53.0164547 3.00930298e-16,53.3361357 L0,57.3501338 C2.71053916e-07,58.7677374 1.15941524,60 2.62583481,60 L62.3715183,60 C63.837878,60 65,58.7677374 65,57.3501338 L65,53.3361357 C64.9997166,53.0164547 64.8811018,52.707897 64.6664763,52.4685261 L60.841545,40.4317594 C60.7820866,40.2436982 60.7009168,40.0804409 60.6112563,39.9273965 C60.8223829,39.5467812 60.9527205,39.1121589 60.9527205,38.6338228 L60.9527205,5.07669401 C60.9527205,3.65201892 59.7415147,2.5 58.316297,2.5 L6.68370262,2.5 Z M6.74193679,5.16031897 L58.2580624,5.16031897 L58.2580624,38.6338228 C58.2580624,38.5035016 58.1516209,38.6259821 58.2501219,38.6259821 L51.6114179,38.6259821 C51.565701,38.6210654 51.5197603,38.6184489 51.473774,38.6181428 L13.5262258,38.6181428 C13.4811226,38.6185367 13.4360676,38.621153 13.3912287,38.6259821 L6.74987786,38.6259821 C6.84842899,38.6259821 6.74193679,38.5034481 6.74193679,38.6338228 L6.74193679,5.16031897 Z M6.44017761,41.2575552 C6.44628351,41.2582055 6.45258687,41.2569438 6.45870659,41.2575552 C6.46176828,41.2678498 6.47165104,41.2633207 6.48252979,41.2601683 C6.57192608,41.2683689 6.6577713,41.2863021 6.74987786,41.2863021 L11.7924336,41.2863021 L10.8553918,44.9840922 C10.754368,45.3838641 10.8455218,45.8072928 11.102497,46.131948 C11.3594722,46.4566032 11.7536126,46.6462813 12.1709562,46.6461389 L52.8290436,46.6461389 C53.2463871,46.6462813 53.6405275,46.4566031 53.8975026,46.1319479 C54.1544778,45.8072928 54.2456316,45.3838641 54.1446078,44.9840922 L53.2075663,41.2863021 L58.2501219,41.2863021 C58.3403354,41.2863021 58.4245586,41.2706516 58.5121754,41.2627814 C58.5264247,41.2686058 58.5403312,41.2700187 58.5439403,41.2575552 C58.5491838,41.2570267 58.5545886,41.2581118 58.5598227,41.2575552 L61.9824069,52.0242688 L3.01759256,52.0242688 L6.44017761,41.2575552 Z M14.5850301,41.2941415 L50.4149696,41.2941415 L51.0926044,43.9701402 L13.9073953,43.9701402 L14.5850301,41.2941415 Z M27.0789215,47.9841383 L25.723652,50.660137 L39.2763478,50.660137 L37.9210782,47.9841383 L27.0789215,47.9841383 Z M2.65759908,54.6480026 L62.3424004,54.6480026 L62.3424004,57.3501338 C62.3424004,57.4096881 62.3417499,57.3762662 62.3715183,57.3762662 L2.65495196,57.3762662 C2.65631537,57.3729761 2.65759853,57.3714414 2.65759908,57.3501338 L2.65759908,54.6480026 Z" id="Shape" fill="#262626" fill-rule="nonzero"></path>
                </g>
                <g id="smartphone" transform="translate(0.000000, 3.750000)" fill-rule="nonzero" fill="#000000">
                    <path d="M26.1132353,0 L3.88676471,0 C1.74441176,0 0,1.7710625 0,3.94614583 L0,49.8029583 C0,51.9789375 1.74441176,53.75 3.88676471,53.75 L26.1123529,53.75 C28.2555882,53.75 30,51.9789375 30,49.8038542 L30,3.94614583 C30,1.7710625 28.2555882,0 26.1132353,0 Z M1.76470588,7.16666667 L28.2352941,7.16666667 L28.2352941,41.2083333 L1.76470588,41.2083333 L1.76470588,7.16666667 Z M3.88676471,1.79166667 L26.1123529,1.79166667 C27.2832353,1.79166667 28.2352941,2.75827083 28.2352941,3.94614583 L28.2352941,5.375 L1.76470588,5.375 L1.76470588,3.94614583 C1.76470588,2.75827083 2.71676471,1.79166667 3.88676471,1.79166667 Z M26.1132353,51.9583333 L3.88676471,51.9583333 C2.71676471,51.9583333 1.76470588,50.9917292 1.76470588,49.8038542 L1.76470588,43 L28.2352941,43 L28.2352941,49.8038542 C28.2352941,50.9917292 27.2832353,51.9583333 26.1132353,51.9583333 Z" id="Shape"></path>
                    <path d="M14.375,43.75 C12.6515625,43.75 11.25,45.1515625 11.25,46.875 C11.25,48.5984375 12.6515625,50 14.375,50 C16.0984375,50 17.5,48.5984375 17.5,46.875 C17.5,45.1515625 16.0984375,43.75 14.375,43.75 Z M14.375,48.4375 C13.5132812,48.4375 12.8125,47.7367188 12.8125,46.875 C12.8125,46.0132812 13.5132812,45.3125 14.375,45.3125 C15.2367188,45.3125 15.9375,46.0132812 15.9375,46.875 C15.9375,47.7367188 15.2367188,48.4375 14.375,48.4375 Z" id="Shape"></path>
                    <path d="M12.0833333,5 L15.4166667,5 C15.8775,5 16.25,4.44125 16.25,3.75 C16.25,3.05875 15.8775,2.5 15.4166667,2.5 L12.0833333,2.5 C11.6225,2.5 11.25,3.05875 11.25,3.75 C11.25,4.44125 11.6225,5 12.0833333,5 Z" id="Shape"></path>
                    <path d="M17.0833333,5 L17.9166667,5 C18.3775,5 18.75,4.44125 18.75,3.75 C18.75,3.05875 18.3775,2.5 17.9166667,2.5 L17.0833333,2.5 C16.6225,2.5 16.25,3.05875 16.25,3.75 C16.25,4.44125 16.6225,5 17.0833333,5 Z" id="Shape"></path>
                    <path d="M7.82038462,28.3022596 L7.77927885,28.340625 L8.67173077,28.9873558 C8.70096154,29.0083654 8.73201923,29.0257212 8.76125,29.0467308 C8.93754808,29.1727885 9.11841346,29.2915385 9.30293269,29.4084615 C9.41528846,29.4797115 9.52855769,29.5482212 9.64274038,29.6149038 C9.81721154,29.7172115 9.99168269,29.8176923 10.1707212,29.9108654 C10.3214423,29.9894231 10.4758173,30.0606731 10.6301923,30.1328365 C10.7836538,30.2040865 10.9334615,30.2799038 11.0905769,30.3447596 C11.3965865,30.4726442 11.7080769,30.5859135 12.0232212,30.6873077 C12.1328365,30.7229327 12.2461058,30.7494231 12.3566346,30.7813942 C12.5932212,30.8499038 12.8307212,30.9129327 13.071875,30.9659135 C13.1961058,30.9933173 13.3203365,31.0170673 13.4454808,31.0399038 C13.6921154,31.0864904 13.9396635,31.1239423 14.1899519,31.1540865 C14.3032212,31.1677885 14.4155769,31.1833173 14.5288462,31.1942788 C14.8914904,31.2280769 15.256875,31.25 15.625,31.25 C15.993125,31.25 16.3575962,31.2280769 16.7202404,31.1942788 C16.8344231,31.1833173 16.9458654,31.1677885 17.0591346,31.1540865 C17.3094231,31.1239423 17.5578846,31.0864904 17.8045192,31.0399038 C17.92875,31.0170673 18.0520673,30.9933173 18.1753846,30.9659135 C18.4192788,30.9120192 18.6595192,30.8489904 18.8988462,30.7795673 C19.0066346,30.7485096 19.11625,30.7220192 19.223125,30.6882212 C19.5391827,30.5868269 19.8515865,30.4735577 20.1594231,30.3456731 C20.3101442,30.2835577 20.4544712,30.2104808 20.6024519,30.1419712 C20.7632212,30.0670673 20.9239904,29.9930769 21.0811058,29.9108654 C21.2546635,29.8204327 21.4236538,29.7236058 21.5917308,29.6249519 C21.7132212,29.5537019 21.8347115,29.480625 21.954375,29.4048077 C22.1306731,29.2933654 22.3042308,29.1791827 22.4732212,29.0595192 C22.5042788,29.0375962 22.5380769,29.0184135 22.5691346,28.9955769 L23.4935577,28.3278365 L23.4478846,28.2876442 C25.9251923,26.1090385 27.5,22.925625 27.5,19.375 C27.5,12.8273077 22.1726923,7.5 15.625,7.5 C9.07730769,7.5 3.75,12.8273077 3.75,19.375 C3.75,22.9338462 5.33211538,26.1245673 7.82038462,28.3022596 Z M13.1769231,29.1088462 C12.8151923,29.0193269 12.4589423,28.9060577 12.1081731,28.7754327 C12.0670673,28.7599038 12.0250481,28.7462019 11.9839423,28.7297596 C11.623125,28.59 11.2687019,28.4310577 10.9252404,28.2483654 L13.143125,27.0389423 C13.8245673,26.6671635 14.2475,25.95375 14.2475,25.1782212 L14.2475,23.6362981 L14.0346635,23.3823558 C14.0273558,23.3732212 13.3002404,22.4807692 13.0262019,21.286875 L12.9037981,20.8602885 L12.5913942,20.6584135 L12.6215385,19.2781731 L12.9229808,19.0059615 L12.9229808,16.6857692 L12.9147596,16.5661058 C12.9138462,16.5597115 12.8489904,15.8864904 13.3066346,15.3649038 C13.7332212,14.8789423 14.5434615,14.6213462 15.6496635,14.6213462 C16.7439904,14.6213462 17.5505769,14.8734615 17.9799038,15.3512019 C18.45125,15.8737019 18.3863942,16.5505769 18.3845673,16.5670192 L18.3763462,18.6012981 L18.4064904,19.0625962 L18.7079327,19.3348077 L18.7079327,20.6593269 C18.7079327,20.6976923 18.6713942,20.7232692 18.6485577,20.7305769 L18.1936538,20.8703365 L18.0475,21.3243269 C17.8437981,21.9564423 17.5551442,22.5392308 17.1870192,23.0580769 C17.1020673,23.1795673 17.0216827,23.2827885 16.9513462,23.3622596 L16.7220673,23.6216827 L16.7220673,25.2083654 C16.7220673,26.0158654 17.1705769,26.7420673 17.8922115,27.1028846 L20.2525962,28.2830769 C20.2388942,28.2903846 20.2251923,28.2958654 20.2124038,28.3022596 C19.8908654,28.4694231 19.5592788,28.6155769 19.2222115,28.744375 C19.1646635,28.7662981 19.1071154,28.7863942 19.0495673,28.8074038 C18.7070192,28.9307212 18.3580769,29.0394231 18.0036538,29.1252885 C17.9945192,29.1271154 17.9862981,29.1298558 17.9771635,29.1316827 C16.4114904,29.5025481 14.7590385,29.4961538 13.1961058,29.1125 C13.1897115,29.1125 13.1833173,29.1106731 13.1769231,29.1088462 Z M15.625,9.32692308 C21.1651442,9.32692308 25.6730769,13.8348558 25.6730769,19.375 C25.6730769,22.4944712 24.2444231,25.2850962 22.0073558,27.129375 C21.9625962,27.1047115 21.9196635,27.0736538 21.8739904,27.0508173 L18.7125,25.4705288 C18.6138462,25.4212019 18.5499038,25.3188942 18.5499038,25.2092788 L18.5499038,24.29125 C18.5928365,24.2346154 18.6366827,24.1752404 18.6805288,24.113125 C19.080625,23.5495192 19.4085577,22.9274519 19.6570192,22.260625 C20.1977885,21.9180769 20.5366827,21.3225 20.5366827,20.6593269 L20.5366827,19.3348077 C20.5366827,18.9538942 20.4188462,18.5821154 20.2050962,18.2687981 L20.2050962,16.7341827 C20.2343269,16.4044231 20.2708654,15.1913462 19.3683654,14.161875 C18.5736538,13.2557212 17.323125,12.7953365 15.6514904,12.7953365 C13.9798558,12.7953365 12.7293269,13.2557212 11.9346154,14.161875 C11.0330288,15.1913462 11.0686538,16.4035096 11.0978846,16.7341827 L11.0978846,18.2687981 C10.8841346,18.5821154 10.7662981,18.9538942 10.7662981,19.3348077 L10.7662981,20.6593269 C10.7662981,21.1717788 10.9709135,21.6513462 11.32625,22.0057692 C11.6203846,23.0462019 12.1328365,23.8655769 12.4214904,24.2729808 L12.4214904,25.1782212 C12.4214904,25.2850962 12.3630288,25.38375 12.2689423,25.4349038 L9.31663462,27.04625 C9.28283654,27.0645192 9.25177885,27.0891827 9.21889423,27.1083654 C6.99552885,25.2631731 5.57692308,22.4816827 5.57692308,19.375 C5.57692308,13.8348558 10.0848558,9.32692308 15.625,9.32692308 Z" id="Shape"></path>
                    <path d="M9.64285714,33.75 L2.5,33.75 L2.5,40 L9.64285714,40 L27.5,40 L27.5,33.75 L9.64285714,33.75 Z M4.28571429,38.4375 L4.28571429,35.3125 L7.85714286,35.3125 L7.85714286,38.4375 L4.28571429,38.4375 Z M25.7142857,38.4375 L9.64285714,38.4375 L9.64285714,35.3125 L25.7142857,35.3125 L25.7142857,38.4375 Z" id="Shape"></path>
                </g>
            </g>
        </g>
    </g>
</svg>